<?xml version="1.0" encoding="UTF-8"?>
<!DOCTYPE svg PUBLIC "-//W3C//DTD SVG 1.1//EN" "http://www.w3.org/Graphics/SVG/1.1/DTD/svg11.dtd">
<svg version="1.1" xmlns="http://www.w3.org/2000/svg" xmlns:xlink="http://www.w3.org/1999/xlink" x="0" y="0" width="64" height="64" viewBox="0, 0, 64, 64">
  <g id="Page-1" display="none">
    <path d="M192.533,293.131 L190.379,294.4 L120,171.936 L122.155,170.667 L192.533,293.131 z M248.667,415.374 L320.667,290.667 L322.976,292 L250.976,416.708 L248.667,415.374 L248.667,415.374 z M256,180 L397.333,180 L397.333,182.667 L256,182.667 L256,180 L256,180 z" fill="#FFFFFF" id="Lines" display="none"/>
    <path d="M256,88 C348.784,88 424,163.216 424,256 C424,348.784 348.784,424 256,424 C163.216,424 88,348.784 88,256 C88,163.216 163.216,88 256,88 z M396.216,197.333 L302.088,197.333 C320.381,211.56 330.087,233.078 330.667,256 C330.642,269.954 327.219,281.163 320.622,293.31 L320.664,293.333 L254.472,407.981 L256,408 C339.947,408 408,339.947 408,256 C407.983,235.898 404.05,215.855 396.216,197.333 z M125.144,178.685 C110.974,201.91 104.342,228.955 104,256 C104.674,334.22 160.128,395.114 236.688,406.784 L283.759,325.254 C275.014,329.1 265.471,330.427 256,330.667 C229.959,330.411 204.009,316.567 191.378,293.31 L191.336,293.333 L125.144,178.685 z M256,197.333 C223.599,197.333 197.333,223.599 197.333,256 C197.333,288.401 223.599,314.667 256,314.667 C288.401,314.667 314.667,288.401 314.667,256 C314.667,223.599 288.401,197.333 256,197.333 z M256,104 C209.146,104.079 163.273,126.25 135.098,163.925 L182.118,245.367 C186.435,207.992 219.575,182.254 256,181.333 L388.401,181.333 C362.361,133.304 309.855,104.681 256,104 z" fill="#000000" display="none"/>
  </g>
  <g id="Layer_3" display="none">
    <path d="M448,0 C483.346,0 512,28.654 512,64 L512,448 C512,483.346 483.346,512 448,512 L64,512 C28.654,512 0,483.346 0,448 L0,64 C0,28.654 28.654,0 64,0 L448,0 z M448,8 L64,8 C33.072,8 8,33.072 8,64 L8,448 C8,478.928 33.072,504 64,504 L448,504 C478.928,504 504,478.928 504,448 L504,64 C504,33.072 478.928,8 448,8 z" fill="#000000"/>
    <path d="M512,256 L0,256" fill-opacity="0" stroke="#000000" stroke-width="8"/>
    <path d="M512,312 L0,312" fill-opacity="0" stroke="#000000" stroke-width="8"/>
    <path d="M512,200 L0,200" fill-opacity="0" stroke="#000000" stroke-width="8"/>
    <path d="M256,0 L256,512" fill-opacity="0" stroke="#000000" stroke-width="8"/>
    <path d="M312,0 L312,512" fill-opacity="0" stroke="#000000" stroke-width="8"/>
    <path d="M200,0 L200,512" fill-opacity="0" stroke="#000000" stroke-width="8"/>
    <path d="M512,512 L0,0" fill-opacity="0" stroke="#000000" stroke-width="8"/>
    <path d="M0,512 L512,0" fill-opacity="0" stroke="#000000" stroke-width="8"/>
    <path d="M256,440 C154.38,440 72,357.62 72,256 C72,154.38 154.38,72 256,72 C357.62,72 440,154.38 440,256 C440,357.62 357.62,440 256,440 z" fill="#C3C3C3"/>
  </g>
  <g id="Layer_3_Copy">
    <path d="M0,0 L512,0 L512,512 L0,512 L0,0 z" fill="#FFFFFF" display="none"/>
    <path d="M56,0 C60.418,0 64,3.582 64,8 L64,56 C64,60.418 60.418,64 56,64 L8,64 C3.582,64 0,60.418 0,56 L0,8 C0,3.582 3.582,0 8,0 L56,0 z M24,2 L8,2 C6.739,1.988 5.561,2.414 4.527,3.113 L16.463,15.049 C15.96,15.488 15.498,15.97 15.049,16.463 L3.113,4.527 C2.37,5.543 2.031,6.753 2,8 L2,24 L10.437,24 C10.182,24.653 9.971,25.322 9.796,26 L2,26 L2,31 L9.028,31 C8.997,31.604 9.009,31.271 9,32 C9.009,32.729 8.997,32.396 9.028,33 L2,33 L2,38 L9.796,38 C9.956,38.683 10.196,39.343 10.437,40 L2,40 L2,56 C1.988,57.261 2.414,58.439 3.113,59.473 L15.049,47.537 C15.488,48.04 15.97,48.502 16.463,48.951 L4.527,60.887 C5.543,61.63 6.753,61.968 8,62 L24,62 L24,53.563 C24.653,53.818 25.322,54.029 26,54.204 L26,62 L31,62 L31,54.972 C31.604,55.002 31.271,54.991 32,55 C32.729,54.991 32.396,55.002 33,54.972 L33,62 L38,62 L38,54.204 C38.683,54.044 39.343,53.804 40,53.563 L40,62 L56,62 C57.261,62.012 58.439,61.586 59.473,60.887 L47.537,48.951 C48.04,48.512 48.502,48.03 48.951,47.537 L60.887,59.473 C61.63,58.457 61.968,57.247 62,56 L62,40 L53.563,40 C53.818,39.347 54.029,38.678 54.204,38 L62,38 L62,33 L54.972,33 C55.003,32.396 54.991,32.729 55,32 C54.991,31.271 55.002,31.604 54.972,31 L62,31 L62,26 L54.204,26 C54.044,25.317 53.804,24.657 53.563,24 L62,24 L62,8 C62.001,6.808 61.691,5.92 61.131,4.889 L60.887,4.527 L48.951,16.463 C48.512,15.96 48.03,15.498 47.537,15.049 L59.473,3.113 C58.457,2.37 57.247,2.031 56,2 L40,2 L40,10.437 C39.347,10.182 38.678,9.971 38,9.796 L38,2 L33,2 L33,9.028 C32.396,8.997 32.729,9.009 32,9 C31.271,9.009 31.604,8.997 31,9.028 L31,2 L26,2 L26,9.796 C25.317,9.956 24.657,10.196 24,10.437 L24,2 z M51.662,24.625 C52.527,26.988 53.016,29.477 53,32 C53,43.598 43.598,53 32,53 C31.214,52.99 31.638,53.002 30.726,52.956 L40.119,36.687 L40.114,36.684 C40.942,35.16 41.372,33.752 41.375,32 C41.302,29.116 40.078,26.413 37.776,24.625 L51.662,24.625 z M14.487,20.417 L23.881,36.687 L23.886,36.684 C25.472,39.605 28.73,41.343 32,41.375 C33.194,41.345 34.397,41.176 35.499,40.69 L28.557,52.714 C18.556,51.186 10.976,42.047 11,32 C11.052,27.905 12.166,23.822 14.487,20.417 z M32,24.625 C36.073,24.625 39.375,27.927 39.375,32 C39.375,36.073 36.073,39.375 32,39.375 C27.927,39.375 24.625,36.073 24.625,32 C24.625,27.927 27.927,24.625 32,24.625 z M32,11 C39.871,11.099 47.325,15.445 50.792,22.625 L32,22.625 C27.415,22.741 23.262,25.979 22.722,30.68 L15.785,18.664 C19.756,13.852 25.75,10.994 32,11 z" fill="#000000"/>
    <path d="M256,480 C132.288,480 32,379.712 32,256 C32,132.288 132.288,32 256,32 C379.712,32 480,132.288 480,256 C480,379.712 379.712,480 256,480 z" fill-opacity="0" stroke="#000000" stroke-width="8" display="none"/>
  </g>
  <g id="Layer_3_Copy_Copy" display="none">
    <path d="M0,0 L512,0 L512,512 L0,512 L0,0 z" fill="#FFFFFF" display="none"/>
    <path d="M38.5,54.064 L38.5,64 L32.5,64 L32.5,54.994 C34.523,54.938 36.563,54.667 38.5,54.064 z M25.5,54.064 L25.5,64 L31.5,64 L31.5,54.994 C29.473,54.968 27.443,54.636 25.5,54.064 z M16.095,48.612 L2.711,61.996 C4.264,63.278 5.961,63.997 8,64 L24.5,64 L24.5,53.746 C21.395,52.61 18.46,50.954 16.095,48.612 z M47.905,48.612 C45.564,50.953 42.595,52.634 39.5,53.746 L39.5,64 L56,64 C57.955,63.951 59.817,63.31 61.289,61.996 L47.905,48.612 z M10.254,39.5 L0,39.5 L0,56 C0.049,57.955 0.69,59.817 2.004,61.289 L15.388,47.905 C13.047,45.564 11.366,42.595 10.254,39.5 z M64,39.5 L53.746,39.5 C52.61,42.605 50.954,45.54 48.612,47.905 L61.996,61.289 C63.278,59.736 63.997,58.039 64,56 L64,39.5 z M9.006,32.5 L0,32.5 L0,38.5 L9.936,38.5 C9.333,36.563 9.062,34.523 9.006,32.5 z M64,32.5 L54.994,32.5 C54.968,34.527 54.636,36.557 54.064,38.5 L64,38.5 L64,32.5 z M9.936,25.5 L0,25.5 L0,31.5 L9.006,31.5 C9.032,29.473 9.364,27.443 9.936,25.5 z M64,25.5 L54.064,25.5 C54.667,27.437 54.938,29.477 54.994,31.5 L64,31.5 L64,25.5 z M2.004,2.711 C0.722,4.264 0.003,5.961 0,8 L0,24.5 L10.254,24.5 C11.39,21.395 13.046,18.46 15.388,16.095 L2.004,2.711 z M61.996,2.711 L48.612,16.095 C50.953,18.436 52.634,21.405 53.746,24.5 L64,24.5 L64,8 C63.956,6.266 63.458,4.613 62.411,3.213 L61.996,2.711 z M24.5,-0 L8,-0 C6.045,0.049 4.183,0.69 2.711,2.004 L16.095,15.388 C18.436,13.047 21.405,11.366 24.5,10.254 L24.5,-0 z M56,-0 L39.5,-0 L39.5,10.254 C42.605,11.39 45.54,13.046 47.905,15.388 L61.289,2.004 C59.736,0.722 58.039,0.003 56,-0 z M31.5,-0 L25.5,-0 L25.5,9.936 C27.437,9.333 29.477,9.062 31.5,9.006 L31.5,-0 z M38.5,-0 L32.5,-0 L32.5,9.006 C34.527,9.032 36.557,9.364 38.5,9.936 L38.5,-0 z" fill="#000000"/>
    <path d="M413.298,197 C420.219,215.903 424.127,235.82 423.999,256 C423.999,348.784 348.783,424 255.999,424 C249.709,423.921 253.106,424.018 245.809,423.649 L320.951,293.5 L320.909,293.476 C327.535,281.276 330.974,270.016 330.999,256 C330.416,232.926 320.625,211.305 302.206,197 L413.298,197 z M115.895,163.333 C97.33,190.578 88.413,223.243 87.999,256 C87.81,336.374 148.445,409.491 228.453,421.711 L283.99,325.517 C275.176,329.411 265.553,330.759 255.999,331 C229.842,330.743 203.776,316.837 191.089,293.476 L191.047,293.5 L115.895,163.333 z M255.999,197 C223.414,197 196.999,223.415 196.999,256 C196.999,288.585 223.414,315 255.999,315 C288.584,315 314.999,288.585 314.999,256 C314.999,223.415 288.584,197 255.999,197 z M255.999,88 C206.004,87.95 158.051,110.814 126.277,149.315 L181.775,245.441 C186.097,207.832 219.322,181.928 255.999,181 L406.334,181 C378.6,123.56 318.965,88.796 255.999,88 z" fill="#000000" display="none"/>
    <path d="M256,480 C132.288,480 32,379.712 32,256 C32,132.288 132.288,32 256,32 C379.712,32 480,132.288 480,256 C480,379.712 379.712,480 256,480 z" fill-opacity="0" stroke="#000000" stroke-width="8" display="none"/>
    <path d="M32,11 C43.598,11 53,20.402 53,32 C53,43.598 43.598,53 32,53 C20.402,53 11,43.598 11,32 C11,20.402 20.402,11 32,11 z M49.527,24.667 L37.761,24.667 C40.048,26.445 41.261,29.135 41.333,32 C41.33,33.744 40.902,35.145 40.078,36.664 L40.083,36.667 L31.809,50.998 L32,51 C42.493,51 51,42.493 51,32 C50.998,29.487 50.506,26.982 49.527,24.667 z M15.643,22.336 C13.872,25.239 13.043,28.619 13,32 C13.084,41.778 20.016,49.389 29.586,50.848 L35.47,40.657 C34.377,41.138 33.184,41.303 32,41.333 C28.745,41.301 25.501,39.571 23.922,36.664 L23.917,36.667 L15.643,22.336 z M32,24.667 C27.95,24.667 24.667,27.95 24.667,32 C24.667,36.05 27.95,39.333 32,39.333 C36.05,39.333 39.333,36.05 39.333,32 C39.333,27.95 36.05,24.667 32,24.667 z M32,13 C26.143,13.01 20.409,15.781 16.887,20.491 L22.765,30.671 C23.304,25.999 27.447,22.782 32,22.667 L48.55,22.667 C45.295,16.663 38.732,13.085 32,13 z" fill="#000000"/>
  </g>
  <g id="Layer_3_Copy_Copy" display="none">
    <path d="M0,0 L512,0 L512,512 L0,512 L0,0 z" fill="#FFFFFF" display="none"/>
    <path d="M458,10 C493.346,10 522,38.654 522,74 L522,458 C522,493.346 493.346,522 458,522 L74,522 C38.654,522 10,493.346 10,458 L10,74 C10,38.654 38.654,10 74,10 L458,10 z M206,18 L74,18 C60.352,17.905 47.773,23.119 37.365,31.708 L138.758,133.101 L133.101,138.758 L31.708,37.364 C22.684,47.566 18.341,60.515 18,74 L18,206 L92.029,206 C90.826,209.285 91.772,206.652 89.486,214 L18,214 L18,262 L82.05,262 L82,266 L82.05,270 L18,270 L18,318 L89.486,318 C91.772,325.348 90.826,322.715 92.029,326 L18,326 L18,458 C17.905,471.648 23.119,484.227 31.708,494.635 L133.101,393.242 L138.758,398.899 L37.364,500.292 C47.566,509.316 60.515,513.659 74,514 L206,514 L206,439.971 C209.285,441.174 206.652,440.228 214,442.514 L214,514 L262,514 L262,449.949 L266,450 L270,449.949 L270,514 L318,514 L318,442.514 C325.348,440.228 322.715,441.174 326,439.971 L326,514 L458,514 C471.648,514.095 484.227,508.881 494.635,500.292 L393.242,398.899 L398.899,393.242 L500.292,494.635 C509.316,484.434 513.659,471.485 514,458 L514,326 L439.971,326 C441.174,322.715 440.228,325.348 442.514,318 L514,318 L514,270 L449.949,270 L450,266 L449.949,262 L514,262 L514,214 L442.514,214 C440.228,206.652 441.174,209.285 439.971,206 L514,206 L514,74 C513.94,60.887 510.101,51.192 502.875,40.494 L500.292,37.364 L398.899,138.758 L393.242,133.101 L494.635,31.708 C484.434,22.684 471.485,18.341 458,18 L326,18 L326,92.029 C322.715,90.826 325.348,91.772 318,89.486 L318,18 L270,18 L270,82.05 L266,82 L262,82.05 L262,18 L214,18 L214,89.486 C206.652,91.772 209.285,90.826 206,92.029 L206,18 z" fill="#000000"/>
    <path d="M256,480 C132.288,480 32,379.712 32,256 C32,132.288 132.288,32 256,32 C379.712,32 480,132.288 480,256 C480,379.712 379.712,480 256,480 z" fill-opacity="0" stroke="#000000" stroke-width="8" display="none"/>
  </g>
  <g id="Layer_2" display="none">
    <path d="M443.299,227 C450.22,245.902 454.128,265.82 454,286 C454,378.784 378.784,454 286,454 C279.71,453.92 283.107,454.018 275.81,453.649 L350.952,323.5 L350.91,323.476 C357.536,311.276 360.975,300.016 361,286 C360.417,262.926 350.626,241.305 332.207,227 L443.299,227 z M145.896,193.333 C127.331,220.578 118.415,253.242 118,286 C117.811,366.374 178.446,439.491 258.454,451.711 L313.991,355.517 C305.177,359.411 295.554,360.758 286,361 C259.843,360.743 233.777,346.837 221.09,323.476 L221.048,323.5 L145.896,193.333 z M286,227 C253.415,227 227,253.415 227,286 C227,318.585 253.415,345 286,345 C318.585,345 345,318.585 345,286 C345,253.415 318.585,227 286,227 z M286,118 C236.005,117.95 188.052,140.814 156.278,179.315 L211.777,275.441 C216.098,237.832 249.323,211.928 286,211 L436.335,211 C408.602,153.56 348.966,118.796 286,118 z" fill="#000000"/>
    <path d="M266,98 C358.784,98 434,173.216 434,266 C434,358.784 358.784,434 266,434 C173.216,434 98,358.784 98,266 C98,173.216 173.216,98 266,98 z M406.216,207.333 L312.088,207.333 C330.381,221.56 340.087,243.078 340.667,266 C340.642,279.954 337.219,291.163 330.622,303.31 L330.664,303.333 L264.472,417.981 L266,418 C349.947,418 418,349.947 418,266 C417.983,245.898 414.05,225.855 406.216,207.333 z M135.144,188.685 C120.974,211.91 114.342,238.955 114,266 C114.674,344.22 170.128,405.114 246.688,416.784 L293.759,335.254 C285.014,339.1 275.471,340.427 266,340.667 C239.959,340.411 214.009,326.567 201.378,303.31 L201.336,303.333 L135.144,188.685 z M266,207.333 C233.599,207.333 207.333,233.599 207.333,266 C207.333,298.401 233.599,324.667 266,324.667 C298.401,324.667 324.667,298.401 324.667,266 C324.667,233.599 298.401,207.333 266,207.333 z M266,114 C219.146,114.079 173.273,136.25 145.098,173.925 L192.118,255.367 C196.435,217.992 229.575,192.254 266,191.333 L398.401,191.333 C372.361,143.304 319.855,114.681 266,114 z" fill="#000000" display="none"/>
  </g>
  <g id="Layer_6" display="none">
    <path d="M56,0 C60.418,0 64,3.582 64,8 L64,56 C64,60.418 60.418,64 56,64 L8,64 C3.582,64 0,60.418 0,56 L0,8 C0,3.582 3.582,0 8,0 L56,0 z M24.5,1 L8,1 C6.294,0.988 4.722,1.64 3.421,2.713 L16.095,15.388 L15.388,16.095 L2.713,3.421 C1.586,4.696 1.043,6.314 1,8 L1,24.5 L10.254,24.5 C10.103,24.911 10.221,24.581 9.936,25.5 L1,25.5 L1,31.5 L9.006,31.5 L9,32 L9.006,32.5 L1,32.5 L1,38.5 L9.936,38.5 C10.221,39.419 10.103,39.089 10.254,39.5 L1,39.5 L1,56 C0.988,57.706 1.64,59.278 2.713,60.579 L15.388,47.905 L16.095,48.612 L3.421,61.287 C4.696,62.414 6.314,62.957 8,63 L24.5,63 L24.5,53.746 C24.911,53.897 24.581,53.779 25.5,54.064 L25.5,63 L31.5,63 L31.5,54.994 L32,55 L32.5,54.994 L32.5,63 L38.5,63 L38.5,54.064 C39.419,53.779 39.089,53.897 39.5,53.746 L39.5,63 L56,63 C57.706,63.012 59.278,62.36 60.579,61.287 L47.905,48.612 L48.612,47.905 L61.287,60.579 C62.414,59.304 62.957,57.686 63,56 L63,39.5 L53.746,39.5 C53.897,39.089 53.779,39.419 54.064,38.5 L63,38.5 L63,32.5 L54.994,32.5 L55,32 L54.994,31.5 L63,31.5 L63,25.5 L54.064,25.5 C53.779,24.581 53.897,24.911 53.746,24.5 L63,24.5 L63,8 C62.992,6.361 62.513,5.149 61.609,3.812 L61.287,3.421 L48.612,16.095 L47.905,15.388 L60.579,2.713 C59.304,1.586 57.686,1.043 56,1 L39.5,1 L39.5,10.254 C39.089,10.103 39.419,10.221 38.5,9.936 L38.5,1 L32.5,1 L32.5,9.006 L32,9 L31.5,9.006 L31.5,1 L25.5,1 L25.5,9.936 C24.581,10.221 24.911,10.103 24.5,10.254 L24.5,1 z M51.662,24.625 C52.527,26.988 53.016,29.477 53,32 C53,43.598 43.598,53 32,53 C31.214,52.99 31.638,53.002 30.726,52.956 L40.119,36.687 L40.114,36.684 C40.942,35.159 41.372,33.752 41.375,32 C41.302,29.116 40.078,26.413 37.776,24.625 L51.662,24.625 z M14.487,20.417 L23.881,36.687 L23.886,36.684 C25.472,39.605 28.73,41.343 32,41.375 C33.194,41.345 34.397,41.176 35.499,40.69 L28.557,52.714 C18.556,51.186 10.976,42.047 11,32 C11.052,27.905 12.166,23.822 14.487,20.417 z M32,24.625 C36.073,24.625 39.375,27.927 39.375,32 C39.375,36.073 36.073,39.375 32,39.375 C27.927,39.375 24.625,36.073 24.625,32 C24.625,27.927 27.927,24.625 32,24.625 z M32,11 C39.871,11.099 47.325,15.445 50.792,22.625 L32,22.625 C27.415,22.741 23.262,25.979 22.722,30.68 L15.785,18.664 C19.756,13.852 25.751,10.994 32,11 z" fill="#000000"/>
  </g>
</svg>
