<?xml version="1.0" encoding="UTF-8"?>
<!DOCTYPE svg PUBLIC "-//W3C//DTD SVG 1.1//EN" "http://www.w3.org/Graphics/SVG/1.1/DTD/svg11.dtd">
<svg version="1.1" xmlns="http://www.w3.org/2000/svg" xmlns:xlink="http://www.w3.org/1999/xlink" x="0" y="0" width="64" height="64" viewBox="0, 0, 64, 64">
  <g id="Layer_3_Copy" transform="translate(0, 0)">
    <path d="M56,0 C60.418,0 64,3.582 64,8 L64,56 C64,60.418 60.418,64 56,64 L8,64 C3.582,64 0,60.418 0,56 L0,8 C0,3.582 3.582,0 8,0 L56,0 z M24,2 L8,2 C6.739,1.988 5.561,2.414 4.527,3.113 L16.463,15.049 C15.96,15.488 15.498,15.97 15.049,16.463 L3.113,4.527 C2.37,5.543 2.031,6.753 2,8 L2,24 L10.437,24 C10.182,24.653 9.971,25.322 9.796,26 L2,26 L2,31 L9.028,31 C8.997,31.604 9.009,31.271 9,32 C9.009,32.729 8.997,32.396 9.028,33 L2,33 L2,38 L9.796,38 C9.956,38.683 10.196,39.343 10.437,40 L2,40 L2,56 C1.988,57.261 2.414,58.439 3.113,59.473 L15.049,47.537 C15.488,48.04 15.97,48.502 16.463,48.951 L4.527,60.887 C5.543,61.63 6.753,61.968 8,62 L24,62 L24,53.563 C24.653,53.818 25.322,54.029 26,54.204 L26,62 L31,62 L31,54.972 C31.604,55.002 31.271,54.991 32,55 C32.729,54.991 32.396,55.002 33,54.972 L33,62 L38,62 L38,54.204 C38.683,54.044 39.343,53.804 40,53.563 L40,62 L56,62 C57.261,62.012 58.439,61.586 59.473,60.887 L47.537,48.951 C48.04,48.512 48.502,48.03 48.951,47.537 L60.887,59.473 C61.63,58.457 61.968,57.247 62,56 L62,40 L53.563,40 C53.818,39.347 54.029,38.678 54.204,38 L62,38 L62,33 L54.972,33 C55.003,32.396 54.991,32.729 55,32 C54.991,31.271 55.002,31.604 54.972,31 L62,31 L62,26 L54.204,26 C54.044,25.317 53.804,24.657 53.563,24 L62,24 L62,8 C62.001,6.808 61.691,5.92 61.131,4.889 L60.887,4.527 L48.951,16.463 C48.512,15.96 48.03,15.498 47.537,15.049 L59.473,3.113 C58.457,2.37 57.247,2.031 56,2 L40,2 L40,10.437 C39.347,10.182 38.678,9.971 38,9.796 L38,2 L33,2 L33,9.028 C32.396,8.997 32.729,9.009 32,9 C31.271,9.009 31.604,8.997 31,9.028 L31,2 L26,2 L26,9.796 C25.317,9.956 24.657,10.196 24,10.437 L24,2 z M51.662,24.625 C52.527,26.988 53.016,29.477 53,32 C53,43.598 43.598,53 32,53 C31.214,52.99 31.638,53.002 30.726,52.956 L40.119,36.687 L40.114,36.684 C40.942,35.16 41.372,33.752 41.375,32 C41.302,29.116 40.078,26.413 37.776,24.625 L51.662,24.625 z M14.487,20.417 L23.881,36.687 L23.886,36.684 C25.472,39.605 28.73,41.343 32,41.375 C33.194,41.345 34.397,41.176 35.499,40.69 L28.557,52.714 C18.556,51.186 10.976,42.047 11,32 C11.052,27.905 12.166,23.822 14.487,20.417 z M32,24.625 C36.073,24.625 39.375,27.927 39.375,32 C39.375,36.073 36.073,39.375 32,39.375 C27.927,39.375 24.625,36.073 24.625,32 C24.625,27.927 27.927,24.625 32,24.625 z M32,11 C39.871,11.099 47.325,15.445 50.792,22.625 L32,22.625 C27.415,22.741 23.262,25.979 22.722,30.68 L15.785,18.664 C19.756,13.852 25.75,10.994 32,11 z" fill="#000000"/>
  </g>
</svg>
