<?xml version="1.0" encoding="UTF-8"?>
<!DOCTYPE svg PUBLIC "-//W3C//DTD SVG 1.1//EN" "http://www.w3.org/Graphics/SVG/1.1/DTD/svg11.dtd">
<svg version="1.1" xmlns="http://www.w3.org/2000/svg" xmlns:xlink="http://www.w3.org/1999/xlink" x="0" y="0" width="64" height="64" viewBox="0, 0, 64, 64">
  <g id="Page-1" display="none">
    <path d="M192.533,293.131 L190.379,294.4 L120,171.936 L122.155,170.667 L192.533,293.131 z M248.667,415.374 L320.667,290.667 L322.976,292 L250.976,416.708 L248.667,415.374 L248.667,415.374 z M256,180 L397.333,180 L397.333,182.667 L256,182.667 L256,180 L256,180 z" fill="#FFFFFF" id="Lines" display="none"/>
    <path d="M256,88 C348.784,88 424,163.216 424,256 C424,348.784 348.784,424 256,424 C163.216,424 88,348.784 88,256 C88,163.216 163.216,88 256,88 z M396.216,197.333 L302.088,197.333 C320.381,211.56 330.087,233.078 330.667,256 C330.642,269.954 327.219,281.163 320.622,293.31 L320.664,293.333 L254.472,407.981 L256,408 C339.947,408 408,339.947 408,256 C407.983,235.898 404.05,215.855 396.216,197.333 z M125.144,178.685 C110.974,201.91 104.342,228.955 104,256 C104.674,334.22 160.128,395.114 236.688,406.784 L283.759,325.254 C275.014,329.1 265.471,330.427 256,330.667 C229.959,330.411 204.009,316.567 191.378,293.31 L191.336,293.333 L125.144,178.685 z M256,197.333 C223.599,197.333 197.333,223.599 197.333,256 C197.333,288.401 223.599,314.667 256,314.667 C288.401,314.667 314.667,288.401 314.667,256 C314.667,223.599 288.401,197.333 256,197.333 z M256,104 C209.146,104.079 163.273,126.25 135.098,163.925 L182.118,245.367 C186.435,207.992 219.575,182.254 256,181.333 L388.401,181.333 C362.361,133.304 309.855,104.681 256,104 z" fill="#000000" display="none"/>
  </g>
  <g id="Layer_3" display="none">
    <path d="M448,0 C483.346,0 512,28.654 512,64 L512,448 C512,483.346 483.346,512 448,512 L64,512 C28.654,512 0,483.346 0,448 L0,64 C0,28.654 28.654,0 64,0 L448,0 z M448,8 L64,8 C33.072,8 8,33.072 8,64 L8,448 C8,478.928 33.072,504 64,504 L448,504 C478.928,504 504,478.928 504,448 L504,64 C504,33.072 478.928,8 448,8 z" fill="#000000"/>
    <path d="M512,256 L0,256" fill-opacity="0" stroke="#000000" stroke-width="8"/>
    <path d="M512,312 L0,312" fill-opacity="0" stroke="#000000" stroke-width="8"/>
    <path d="M512,200 L0,200" fill-opacity="0" stroke="#000000" stroke-width="8"/>
    <path d="M256,0 L256,512" fill-opacity="0" stroke="#000000" stroke-width="8"/>
    <path d="M312,0 L312,512" fill-opacity="0" stroke="#000000" stroke-width="8"/>
    <path d="M200,0 L200,512" fill-opacity="0" stroke="#000000" stroke-width="8"/>
    <path d="M512,512 L0,0" fill-opacity="0" stroke="#000000" stroke-width="8"/>
    <path d="M0,512 L512,0" fill-opacity="0" stroke="#000000" stroke-width="8"/>
    <path d="M256,440 C154.38,440 72,357.62 72,256 C72,154.38 154.38,72 256,72 C357.62,72 440,154.38 440,256 C440,357.62 357.62,440 256,440 z" fill="#C3C3C3"/>
  </g>
  <g id="Layer_3_Copy" display="none">
    <path d="M0,0 L512,0 L512,512 L0,512 L0,0 z" fill="#FFFFFF"/>
    <path d="M448,0 C483.346,0 512,28.654 512,64 L512,448 C512,483.346 483.346,512 448,512 L64,512 C28.654,512 0,483.346 0,448 L0,64 C0,28.654 28.654,0 64,0 L448,0 z M448,8 L64,8 C33.072,8 8,33.072 8,64 L8,448 C8,478.928 33.072,504 64,504 L448,504 C478.928,504 504,478.928 504,448 L504,64 C504,33.072 478.928,8 448,8 z" fill="#000000"/>
    <path d="M512,256 L0,256 M0,312 L512,312 M0,200 L512,200 M256,512 L256,0 M312,512 L312,0 M200,512 L200,0 M24,24 L488,488 M488,24 L24,488" fill-opacity="0" stroke="#000000" stroke-width="8"/>
    <path d="M256,440 C154.38,440 72,357.62 72,256 C72,154.38 154.38,72 256,72 C357.62,72 440,154.38 440,256 C440,357.62 357.62,440 256,440 z" fill="#FFFFFF"/>
    <path d="M256,480 C132.288,480 32,379.712 32,256 C32,132.288 132.288,32 256,32 C379.712,32 480,132.288 480,256 C480,379.712 379.712,480 256,480 z" fill-opacity="0" stroke="#000000" stroke-width="8" display="none"/>
  </g>
  <g id="Layer_3_Copy_Copy" display="none">
    <path d="M0,0 L512,0 L512,512 L0,512 L0,0 z" fill="#FFFFFF" display="none"/>
    <path d="M458,10 C493.346,10 522,38.654 522,74 L522,458 C522,493.346 493.346,522 458,522 L74,522 C38.654,522 10,493.346 10,458 L10,74 C10,38.654 38.654,10 74,10 L458,10 z M206,18 L74,18 C60.352,17.905 47.773,23.119 37.365,31.708 L138.758,133.101 L133.101,138.758 L31.708,37.364 C22.684,47.566 18.341,60.515 18,74 L18,206 L92.029,206 C90.826,209.285 91.772,206.652 89.486,214 L18,214 L18,262 L82.05,262 L82,266 L82.05,270 L18,270 L18,318 L89.486,318 C91.772,325.348 90.826,322.715 92.029,326 L18,326 L18,458 C17.905,471.648 23.119,484.227 31.708,494.635 L133.101,393.242 L138.758,398.899 L37.364,500.292 C47.566,509.316 60.515,513.659 74,514 L206,514 L206,439.971 C209.285,441.174 206.652,440.228 214,442.514 L214,514 L262,514 L262,449.949 L266,450 L270,449.949 L270,514 L318,514 L318,442.514 C325.348,440.228 322.715,441.174 326,439.971 L326,514 L458,514 C471.648,514.095 484.227,508.881 494.635,500.292 L393.242,398.899 L398.899,393.242 L500.292,494.635 C509.316,484.434 513.659,471.485 514,458 L514,326 L439.971,326 C441.174,322.715 440.228,325.348 442.514,318 L514,318 L514,270 L449.949,270 L450,266 L449.949,262 L514,262 L514,214 L442.514,214 C440.228,206.652 441.174,209.285 439.971,206 L514,206 L514,74 C513.94,60.887 510.101,51.192 502.875,40.494 L500.292,37.364 L398.899,138.758 L393.242,133.101 L494.635,31.708 C484.434,22.684 471.485,18.341 458,18 L326,18 L326,92.029 C322.715,90.826 325.348,91.772 318,89.486 L318,18 L270,18 L270,82.05 L266,82 L262,82.05 L262,18 L214,18 L214,89.486 C206.652,91.772 209.285,90.826 206,92.029 L206,18 z" fill="#000000"/>
    <path d="M256,480 C132.288,480 32,379.712 32,256 C32,132.288 132.288,32 256,32 C379.712,32 480,132.288 480,256 C480,379.712 379.712,480 256,480 z" fill-opacity="0" stroke="#000000" stroke-width="8" display="none"/>
  </g>
  <g id="Layer_2" display="none">
    <path d="M423.299,207 C430.22,225.902 434.128,245.82 434,266 C434,358.784 358.784,434 266,434 C259.71,433.92 263.107,434.018 255.81,433.649 L330.952,303.5 L330.91,303.476 C337.536,291.276 340.975,280.016 341,266 C340.417,242.926 330.626,221.305 312.207,207 L423.299,207 z M125.896,173.333 C107.331,200.578 98.415,233.242 98,266 C97.811,346.374 158.446,419.491 238.454,431.711 L293.991,335.517 C285.177,339.411 275.554,340.758 266,341 C239.843,340.743 213.777,326.837 201.09,303.476 L201.048,303.5 L125.896,173.333 z M266,207 C233.415,207 207,233.415 207,266 C207,298.585 233.415,325 266,325 C298.585,325 325,298.585 325,266 C325,233.415 298.585,207 266,207 z M266,98 C216.005,97.95 168.052,120.814 136.278,159.315 L191.777,255.441 C196.098,217.832 229.323,191.928 266,191 L416.335,191 C388.602,133.56 328.966,98.796 266,98 z" fill="#000000"/>
    <path d="M256,88 C348.784,88 424,163.216 424,256 C424,348.784 348.784,424 256,424 C163.216,424 88,348.784 88,256 C88,163.216 163.216,88 256,88 z M396.216,197.333 L302.088,197.333 C320.381,211.56 330.087,233.078 330.667,256 C330.642,269.954 327.219,281.163 320.622,293.31 L320.664,293.333 L254.472,407.981 L256,408 C339.947,408 408,339.947 408,256 C407.983,235.898 404.05,215.855 396.216,197.333 z M125.144,178.685 C110.974,201.91 104.342,228.955 104,256 C104.674,334.22 160.128,395.114 236.688,406.784 L283.759,325.254 C275.014,329.1 265.471,330.427 256,330.667 C229.959,330.411 204.009,316.567 191.378,293.31 L191.336,293.333 L125.144,178.685 z M256,197.333 C223.599,197.333 197.333,223.599 197.333,256 C197.333,288.401 223.599,314.667 256,314.667 C288.401,314.667 314.667,288.401 314.667,256 C314.667,223.599 288.401,197.333 256,197.333 z M256,104 C209.146,104.079 163.273,126.25 135.098,163.925 L182.118,245.367 C186.435,207.992 219.575,182.254 256,181.333 L388.401,181.333 C362.361,133.304 309.855,104.681 256,104 z" fill="#000000" display="none"/>
  </g>
  <g id="Layer_6">
    <path d="M56,0 C60.418,0 64,3.582 64,8 L64,56 C64,60.418 60.418,64 56,64 L8,64 C3.582,64 0,60.418 0,56 L0,8 C0,3.582 3.582,0 8,0 L56,0 z M24.5,1 L8,1 C6.294,0.988 4.722,1.64 3.421,2.713 L16.095,15.388 L15.388,16.095 L2.713,3.421 C1.586,4.696 1.043,6.314 1,8 L1,24.5 L10.254,24.5 C10.103,24.911 10.221,24.581 9.936,25.5 L1,25.5 L1,31.5 L9.006,31.5 L9,32 L9.006,32.5 L1,32.5 L1,38.5 L9.936,38.5 C10.221,39.419 10.103,39.089 10.254,39.5 L1,39.5 L1,56 C0.988,57.706 1.64,59.278 2.713,60.579 L15.388,47.905 L16.095,48.612 L3.421,61.287 C4.696,62.414 6.314,62.957 8,63 L24.5,63 L24.5,53.746 C24.911,53.897 24.581,53.779 25.5,54.064 L25.5,63 L31.5,63 L31.5,54.994 L32,55 L32.5,54.994 L32.5,63 L38.5,63 L38.5,54.064 C39.419,53.779 39.089,53.897 39.5,53.746 L39.5,63 L56,63 C57.706,63.012 59.278,62.36 60.579,61.287 L47.905,48.612 L48.612,47.905 L61.287,60.579 C62.414,59.304 62.957,57.686 63,56 L63,39.5 L53.746,39.5 C53.897,39.089 53.779,39.419 54.064,38.5 L63,38.5 L63,32.5 L54.994,32.5 L55,32 L54.994,31.5 L63,31.5 L63,25.5 L54.064,25.5 C53.779,24.581 53.897,24.911 53.746,24.5 L63,24.5 L63,8 C62.992,6.361 62.513,5.149 61.609,3.812 L61.287,3.421 L48.612,16.095 L47.905,15.388 L60.579,2.713 C59.304,1.586 57.686,1.043 56,1 L39.5,1 L39.5,10.254 C39.089,10.103 39.419,10.221 38.5,9.936 L38.5,1 L32.5,1 L32.5,9.006 L32,9 L31.5,9.006 L31.5,1 L25.5,1 L25.5,9.936 C24.581,10.221 24.911,10.103 24.5,10.254 L24.5,1 z M51.662,24.625 C52.527,26.988 53.016,29.477 53,32 C53,43.598 43.598,53 32,53 C31.214,52.99 31.638,53.002 30.726,52.956 L40.119,36.687 L40.114,36.684 C40.942,35.159 41.372,33.752 41.375,32 C41.302,29.116 40.078,26.413 37.776,24.625 L51.662,24.625 z M14.487,20.417 L23.881,36.687 L23.886,36.684 C25.472,39.605 28.73,41.343 32,41.375 C33.194,41.345 34.397,41.176 35.499,40.69 L28.557,52.714 C18.556,51.186 10.976,42.047 11,32 C11.052,27.905 12.166,23.822 14.487,20.417 z M32,24.625 C36.073,24.625 39.375,27.927 39.375,32 C39.375,36.073 36.073,39.375 32,39.375 C27.927,39.375 24.625,36.073 24.625,32 C24.625,27.927 27.927,24.625 32,24.625 z M32,11 C39.871,11.099 47.325,15.445 50.792,22.625 L32,22.625 C27.415,22.741 23.262,25.979 22.722,30.68 L15.785,18.664 C19.756,13.852 25.751,10.994 32,11 z" fill="#000000"/>
  </g>
</svg>
