<?xml version="1.0" encoding="UTF-8"?>
<!DOCTYPE svg PUBLIC "-//W3C//DTD SVG 1.1//EN" "http://www.w3.org/Graphics/SVG/1.1/DTD/svg11.dtd">
<svg version="1.1" xmlns="http://www.w3.org/2000/svg" xmlns:xlink="http://www.w3.org/1999/xlink" x="0" y="0" width="64" height="64" viewBox="0, 0, 64, 64">
  <g id="Layer_1">
    <path d="M62,8 C63.105,8 64,8.895 64,10 L64,54 C64,55.105 63.105,56 62,56 L2,56 C0.895,56 -0,55.105 -0,54 L-0,10 C-0,8.895 0.895,8 2,8 L62,8 z M46.406,21.094 C49.885,21.918 50.773,23.599 51,27 L51,27 C51,27.552 51.448,28 52,28 C52.552,28 53,27.552 53,27 C53,23 55,21 59,21 C59.6,20.98 59.893,20.532 60,20 C59.98,19.4 59.532,19.107 59,19 C55,19 53,17 53,13 C53,12.448 52.552,12 52,12 C51.448,12 51,12.448 51,13 L51,13 C50.919,17.141 48.961,18.736 45,19 C44.448,19 44,19.448 44,20 C44,20.552 44.448,21 45,21 L45,21 L46.406,21.094 z" fill="#000000"/>
    <g/>
    <g display="none">
      <path d="M53.5,19.5 C52.5,18.5 50.5,18.5 50.5,18.5 C50.5,18.5 52.5,18.5 53.5,17.5 C54.5,16.5 54.5,14.5 54.5,14.5 C54.5,14.5 54.5,16.5 55.5,17.5 C56.5,18.5 58.5,18.5 58.5,18.5 C58.5,18.5 56.5,18.5 55.5,19.5 C54.5,20.5 54.5,22.5 54.5,22.5 C54.5,22.5 54.5,20.5 53.5,19.5 z" fill="#FFFFFF"/>
      <path d="M53.5,19.5 C52.5,18.5 50.5,18.5 50.5,18.5 C50.5,18.5 52.5,18.5 53.5,17.5 C54.5,16.5 54.5,14.5 54.5,14.5 C54.5,14.5 54.5,16.5 55.5,17.5 C56.5,18.5 58.5,18.5 58.5,18.5 C58.5,18.5 56.5,18.5 55.5,19.5 C54.5,20.5 54.5,22.5 54.5,22.5 C54.5,22.5 54.5,20.5 53.5,19.5 z" fill-opacity="0" stroke="#FFFFFF" stroke-width="2" stroke-linejoin="round"/>
    </g>
    <g display="none">
      <path d="M53.633,9.938 C52.976,9.337 53.134,9.68 53,9 C53,8.924 52.992,8.765 52.969,8.555 C52.93,8.203 52.86,7.854 52.755,7.538 C52.634,7.174 52.476,6.89 52.293,6.707 C52.11,6.524 51.826,6.366 51.462,6.245 C51.146,6.14 50.797,6.07 50.445,6.031 C50.235,6.008 50.076,6 50,6 C48.667,6 48.667,4 50,4 C50.076,4 50.235,3.992 50.445,3.969 C50.797,3.93 51.146,3.86 51.462,3.755 C51.826,3.634 52.11,3.476 52.293,3.293 C52.476,3.11 52.634,2.826 52.755,2.462 C52.86,2.146 52.93,1.797 52.969,1.445 C52.992,1.235 53,1.076 53,1 C53,-0.333 55,-0.333 55,1 C55,1.076 55.008,1.235 55.031,1.445 C55.07,1.797 55.14,2.146 55.245,2.462 C55.366,2.826 55.524,3.11 55.707,3.293 C55.89,3.476 56.174,3.634 56.539,3.755 C56.854,3.86 57.203,3.93 57.555,3.969 C57.765,3.992 57.924,4 58,4 C59.333,4 59.333,6 58,6 C57.924,6 57.765,6.008 57.555,6.031 C57.203,6.07 56.854,6.14 56.539,6.245 C56.174,6.366 55.89,6.524 55.707,6.707 C55.524,6.89 55.366,7.174 55.245,7.538 C55.14,7.854 55.07,8.203 55.031,8.555 C55.008,8.765 55,8.924 55,9 C54.885,9.954 54.436,9.938 53.633,9.938 z" fill="#FFFFFF"/>
      <path d="M54.367,0.062 C55.024,0.663 54.866,0.32 55,1 C55,1.076 55.008,1.235 55.031,1.445 C55.07,1.797 55.14,2.146 55.245,2.461 C55.366,2.826 55.524,3.11 55.707,3.293 C55.89,3.476 56.174,3.634 56.538,3.755 C56.854,3.86 57.203,3.93 57.555,3.969 C57.765,3.992 57.924,4 58,4 C59.333,4 59.333,6 58,6 C57.924,6 57.765,6.008 57.555,6.031 C57.203,6.07 56.854,6.14 56.538,6.245 C56.174,6.366 55.89,6.524 55.707,6.707 C55.524,6.89 55.366,7.174 55.245,7.538 C55.14,7.854 55.07,8.203 55.031,8.555 C55.008,8.765 55,8.924 55,9 C55,10.333 53,10.333 53,9 C53,8.924 52.992,8.765 52.969,8.555 C52.93,8.203 52.86,7.854 52.755,7.538 C52.634,7.174 52.476,6.89 52.293,6.707 C52.11,6.524 51.826,6.366 51.461,6.245 C51.146,6.14 50.797,6.07 50.445,6.031 C50.235,6.008 50.076,6 50,6 C48.667,6 48.667,4 50,4 C50.076,4 50.235,3.992 50.445,3.969 C50.797,3.93 51.146,3.86 51.461,3.755 C51.826,3.634 52.11,3.476 52.293,3.293 C52.476,3.11 52.634,2.826 52.755,2.461 C52.86,2.146 52.93,1.797 52.969,1.445 C52.992,1.235 53,1.076 53,1 C53.115,0.046 53.564,0.062 54.367,0.062 z" fill="#FFFFFF"/>
    </g>
  </g>
</svg>
