<?xml version="1.0" encoding="UTF-8"?>
<!DOCTYPE svg PUBLIC "-//W3C//DTD SVG 1.1//EN" "http://www.w3.org/Graphics/SVG/1.1/DTD/svg11.dtd">
<svg version="1.1" xmlns="http://www.w3.org/2000/svg" xmlns:xlink="http://www.w3.org/1999/xlink" x="0" y="0" width="64" height="64" viewBox="0, 0, 64, 64">
  <g id="Layer_1">
    <path d="M38,4 C39.105,4 40,4.895 40,6 C40,7.105 39.105,8 38,8 L4,8 L4,60 L56,60 L56,26 C56,24.895 56.895,24 58,24 C59.105,24 60,24.895 60,26 L60,62 C60,63.105 59.105,64 58,64 L2,64 C0.895,64 0,63.105 0,62 L0,6 C0,4.895 0.895,4 2,4 L38,4 z M54,0 C52.895,0 52,0.895 52,2 C52,5.314 49.314,8 46,8 C43.333,8 43.333,12 46,12 C49.314,12 52,14.686 52,18 C52,20.667 56,20.667 56,18 C56,14.686 58.686,12 62,12 C64.667,12 64.667,8 62,8 C58.686,8 56,5.314 56,2 C56,0.895 55.105,0 54,0 z" fill="#000000"/>
  </g>
</svg>
