<?xml version="1.0" encoding="UTF-8"?>
<!DOCTYPE svg PUBLIC "-//W3C//DTD SVG 1.1//EN" "http://www.w3.org/Graphics/SVG/1.1/DTD/svg11.dtd">
<svg version="1.1" xmlns="http://www.w3.org/2000/svg" xmlns:xlink="http://www.w3.org/1999/xlink" x="0" y="0" width="64" height="64" viewBox="0, 0, 64, 64">
  <g id="Layer_1">
    <path d="M62,8 C63.105,8 64,8.895 64,10 L64,54 C64,55.105 63.105,56 62,56 L2,56 C0.895,56 0,55.105 0,54 L0,10 C0,8.895 0.895,8 2,8 L62,8 z M52,12 C51.116,12 50.4,12.716 50.4,13.6 C50.4,16.251 48.251,18.4 45.6,18.4 C43.467,18.4 43.467,21.6 45.6,21.6 C48.251,21.6 50.4,23.749 50.4,26.4 C50.4,28.533 53.6,28.533 53.6,26.4 C53.6,23.749 55.749,21.6 58.4,21.6 C60.533,21.6 60.533,18.4 58.4,18.4 C55.749,18.4 53.6,16.251 53.6,13.6 C53.6,12.716 52.884,12 52,12 z" fill="#000000"/>
    <path d="M2,14 L62,14 C63.105,14 64,14.895 64,16 L64,48 C64,49.105 63.105,50 62,50 L2,50 C0.895,50 -0,49.105 -0,48 L-0,16 C-0,14.895 0.895,14 2,14 z" fill="#000000" display="none"/>
  </g>
</svg>
