<?xml version="1.0" encoding="UTF-8"?>
<!DOCTYPE svg PUBLIC "-//W3C//DTD SVG 1.1//EN" "http://www.w3.org/Graphics/SVG/1.1/DTD/svg11.dtd">
<svg version="1.1" xmlns="http://www.w3.org/2000/svg" xmlns:xlink="http://www.w3.org/1999/xlink" x="0" y="0" width="64" height="64" viewBox="0, 0, 64, 64">
    <path d="M16.094,63.341 C15.659,64.104 14.422,64.225 13.331,63.597 L6.499,59.703 C5.413,59.08 4.883,57.958 5.319,57.197 L34.372,11.062 C38.551,4.295 23.946,4.892 20.361,6.884 C23.072,2.014 31.713,0.407 37.318,-0 L38.949,0.107 C42.117,1.687 46.658,4.059 49.652,6.047 C51.851,9.507 54.17,11.33 57.454,11.32 C61.741,14.61 55.047,23.584 50.835,19.428 C50.858,17.374 44.912,12.063 40.745,16.439 L16.094,63.341 z" fill="#000000"/>
</svg>
