<?xml version="1.0" encoding="UTF-8"?>
<!DOCTYPE svg PUBLIC "-//W3C//DTD SVG 1.1//EN" "http://www.w3.org/Graphics/SVG/1.1/DTD/svg11.dtd">
<svg version="1.1" xmlns="http://www.w3.org/2000/svg" xmlns:xlink="http://www.w3.org/1999/xlink" x="0" y="0" width="64" height="64" viewBox="0, 0, 64, 64">
  <g id="Layer_1" display="none">
    <path d="M32,-0 C14.355,-0 0,14.355 0,32 C0,49.645 14.355,64 32,64 C49.645,64 64,49.645 64,32 C64,14.354 49.645,-0 32,-0 z M32,61.583 C15.686,61.583 2.416,48.312 2.416,32 C2.416,15.687 15.686,2.416 32,2.416 C48.313,2.416 61.584,15.686 61.584,31.999 C61.584,48.312 48.313,61.583 32,61.583 z" fill="#000000" display="none"/>
    <path d="M30.81,12.99 L32.657,12.99 C33.134,12.99 33.52,12.604 33.52,12.128 L33.52,6.709 C33.52,6.233 33.134,5.847 32.657,5.847 L30.81,5.847 C30.334,5.847 29.948,6.233 29.948,6.709 L29.948,12.128 C29.948,12.604 30.335,12.99 30.81,12.99 z" fill="#000000" display="none"/>
    <path d="M11.227,29.827 L5.809,29.827 C5.332,29.827 4.946,30.213 4.946,30.69 L4.946,32.537 C4.946,33.013 5.332,33.399 5.809,33.399 L11.227,33.399 C11.704,33.399 12.09,33.013 12.09,32.537 L12.09,30.69 C12.09,30.214 11.704,29.827 11.227,29.827 z" fill="#000000" display="none"/>
    <path d="M14.878,12.579 C14.541,12.241 13.995,12.241 13.658,12.579 L12.56,13.676 C12.224,14.014 12.224,14.559 12.56,14.897 L16.83,19.166 C17.167,19.504 17.713,19.504 18.049,19.166 L19.149,18.068 C19.485,17.731 19.485,17.185 19.149,16.848 L14.878,12.579 z" fill="#000000" display="none"/>
    <path d="M56.637,29.827 L51.22,29.827 C50.743,29.827 50.356,30.213 50.356,30.69 L50.356,32.537 C50.356,33.013 50.743,33.399 51.22,33.399 L56.637,33.399 C57.114,33.399 57.501,33.013 57.501,32.537 L57.501,30.69 C57.501,30.214 57.114,29.827 56.637,29.827 z" fill="#000000" display="none"/>
    <path d="M45.756,19.166 C46.093,19.504 46.639,19.504 46.975,19.166 L51.245,14.897 C51.582,14.559 51.582,14.014 51.244,13.676 L50.147,12.579 C49.81,12.241 49.264,12.241 48.927,12.579 L44.657,16.848 C44.321,17.186 44.321,17.732 44.657,18.069 L45.756,19.166 z" fill="#000000" display="none"/>
    <path d="M17.887,44.666 C17.551,44.329 17.004,44.329 16.667,44.666 L12.398,48.935 C12.061,49.273 12.061,49.82 12.398,50.155 L13.495,51.253 C13.832,51.591 14.379,51.591 14.715,51.253 L18.986,46.983 C19.322,46.646 19.322,46.101 18.986,45.764 L17.887,44.666 z" fill="#000000" display="none"/>
    <path d="M47.139,44.666 C46.801,44.329 46.254,44.329 45.919,44.666 L44.821,45.764 C44.484,46.102 44.484,46.646 44.821,46.983 L49.09,51.253 C49.428,51.591 49.973,51.591 50.309,51.253 L51.409,50.155 C51.745,49.819 51.745,49.272 51.409,48.935 L47.139,44.666 z" fill="#000000" display="none"/>
    <path d="M34.542,27.459 C32.075,26.15 29.015,27.088 27.706,29.555 C26.397,32.021 27.336,35.084 29.802,36.391 C31.4,37.24 33.245,37.14 34.705,36.296 L52.626,42.779 L37.211,31.573 C37.091,29.891 36.14,28.307 34.542,27.459 z" fill="#000000"/>
  </g>
  <g id="Layer_2">
    <path d="M32,0 C49.673,-0 64,14.327 64,32 C64,49.673 49.673,64 32,64 C14.327,64 0,49.673 0,32 C0,14.327 14.327,-0 32,-0 z M32,2 C15.431,2 2,15.431 2,32 C2,48.569 15.431,62 32,62 C48.569,62 62,48.569 62,32 C62,15.431 48.569,2 32,2 z M17.151,45.435 L18.565,46.849 L12.908,52.506 L11.494,51.092 L17.151,45.435 z M46.849,45.435 L52.506,51.092 L51.092,52.506 L45.435,46.849 L46.849,45.435 z M32,28 C34.209,28 36,29.791 36,32 L35.967,32.327 L52.785,44 L34.277,35.277 C33.661,35.905 32.784,35.921 32,36 C29.791,36 28,34.209 28,32 C28,29.791 29.791,28 32,28 z M12,31 L12,33 L4,33 L4,31 L12,31 z M60,31 L60,33 L52,33 L52,31 L60,31 z M12.908,11.494 L18.565,17.151 L17.151,18.565 L11.494,12.908 L12.908,11.494 z M51.092,11.494 L52.506,12.908 L46.849,18.565 L45.435,17.151 L51.092,11.494 z M33,4 L33,12 L31,12 L31,4 L33,4 z" fill="#000000"/>
    <path d="M6,34 C4.895,34 4,33.105 4,32 C4,30.895 4.895,30 6,30 C7.105,30 8,30.895 8,32 C8,33.105 7.105,34 6,34 z" fill="#000000" display="none"/>
  </g>
</svg>
