<?xml version="1.0" encoding="UTF-8"?>
<!DOCTYPE svg PUBLIC "-//W3C//DTD SVG 1.1//EN" "http://www.w3.org/Graphics/SVG/1.1/DTD/svg11.dtd">
<svg version="1.1" xmlns="http://www.w3.org/2000/svg" xmlns:xlink="http://www.w3.org/1999/xlink" x="0" y="0" width="64" height="64" viewBox="0, 0, 64, 64">
    <path d="M62.793,29.149 L34.85,1.207 C33.241,-0.402 30.631,-0.402 29.021,1.207 L23.219,7.011 L30.579,14.371 C32.29,13.792 34.251,14.18 35.614,15.544 C36.986,16.916 37.37,18.894 36.777,20.611 L43.872,27.705 C45.589,27.113 47.568,27.496 48.939,28.869 C50.854,30.785 50.854,33.888 48.939,35.805 C47.022,37.721 43.918,37.721 42.001,35.805 C40.561,34.363 40.204,32.246 40.935,30.471 L34.318,23.855 L34.318,41.266 C34.785,41.497 35.225,41.805 35.614,42.193 C37.529,44.109 37.529,47.213 35.614,49.13 C33.699,51.045 30.593,51.045 28.679,49.13 C26.764,47.212 26.764,44.108 28.679,42.193 C29.153,41.721 29.701,41.363 30.286,41.123 L30.286,23.55 C29.701,23.31 29.154,22.956 28.679,22.479 C27.228,21.029 26.879,18.899 27.623,17.118 L20.368,9.861 L1.207,29.02 C-0.402,30.631 -0.402,33.24 1.207,34.85 L29.151,62.793 C30.76,64.402 33.369,64.402 34.98,62.793 L62.793,34.98 C64.402,33.37 64.402,30.759 62.793,29.149 z" />
</svg>
