<?xml version="1.0" encoding="UTF-8"?>
<?xml-stylesheet href="vector.css" type="text/css"?>
<!DOCTYPE svg PUBLIC "-//W3C//DTD SVG 1.1//EN" "http://www.w3.org/Graphics/SVG/1.1/DTD/svg11.dtd">
<svg version="1.1" xmlns="http://www.w3.org/2000/svg" xmlns:xlink="http://www.w3.org/1999/xlink" x="0" y="0" width="64" height="64" viewBox="0, 0, 64, 64">
  <g id="Layer_1">
    <path d="M64,32 Q64,42.458 57.896,50.812 Q51.792,59.167 42.125,62.375 Q41,62.583 40.479,62.083 Q39.958,61.583 39.958,60.833 L39.958,52.042 Q39.958,48 37.792,46.125 Q40.167,45.875 42.062,45.375 Q43.958,44.875 45.979,43.75 Q48,42.625 49.354,40.979 Q50.708,39.333 51.562,36.604 Q52.417,33.875 52.417,30.333 Q52.417,25.292 49.125,21.75 Q50.667,17.958 48.792,13.25 Q47.625,12.875 45.417,13.708 Q43.208,14.542 41.583,15.542 L40,16.542 Q36.125,15.458 32,15.458 Q27.875,15.458 24,16.542 Q23.333,16.083 22.229,15.417 Q21.125,14.75 18.75,13.812 Q16.375,12.875 15.167,13.25 Q13.333,17.958 14.875,21.75 Q11.583,25.292 11.583,30.333 Q11.583,33.875 12.437,36.583 Q13.292,39.292 14.625,40.958 Q15.958,42.625 17.979,43.75 Q20,44.875 21.896,45.375 Q23.792,45.875 26.167,46.125 Q24.5,47.625 24.125,50.417 Q23.25,50.833 22.25,51.042 Q21.25,51.25 19.875,51.25 Q18.5,51.25 17.146,50.354 Q15.792,49.458 14.833,47.75 Q14.042,46.417 12.812,45.583 Q11.583,44.75 10.75,44.583 L9.917,44.458 Q9.042,44.458 8.708,44.646 Q8.375,44.833 8.5,45.125 Q8.625,45.417 8.875,45.708 Q9.125,46 9.417,46.208 L9.708,46.417 Q10.625,46.833 11.521,48 Q12.417,49.167 12.833,50.125 L13.25,51.083 Q13.792,52.667 15.083,53.646 Q16.375,54.625 17.875,54.896 Q19.375,55.167 20.771,55.188 Q22.167,55.208 23.083,55.042 L24.042,54.875 Q24.042,56.458 24.062,58.583 Q24.083,60.708 24.083,60.833 Q24.083,61.583 23.542,62.083 Q23,62.583 21.875,62.375 Q12.208,59.167 6.104,50.812 Q-0,42.458 -0,32 Q-0,23.292 4.292,15.938 Q8.583,8.583 15.937,4.292 Q23.292,0 32,0 Q40.708,0 48.062,4.292 Q55.417,8.583 59.708,15.938 Q64,23.292 64,32 z"/>
  </g>
</svg>
