<?xml version="1.0" encoding="UTF-8"?>
<?xml-stylesheet href="vector.css" type="text/css"?>
<!DOCTYPE svg PUBLIC "-//W3C//DTD SVG 1.1//EN" "http://www.w3.org/Graphics/SVG/1.1/DTD/svg11.dtd">
<svg version="1.1" xmlns="http://www.w3.org/2000/svg" xmlns:xlink="http://www.w3.org/1999/xlink" x="0" y="0" width="64" height="64" viewBox="0, 0, 64, 64">
  <g id="Layer_1">
    <path d="M29.521,26.5 L34.479,26.5 L35.71,24.805 L35.71,11.526 L28.291,11.526 L28.291,24.806 L29.521,26.5 M26.326,32.423 L24.335,33.07 L11.703,28.966 L13.996,21.91 L26.626,26.014 L27.858,27.709 L26.326,32.423 M30.972,37.292 L30.972,39.386 L23.165,50.129 L17.164,45.769 L24.969,35.026 L26.962,34.378 L30.972,37.292 M37.039,34.378 L39.03,35.025 L46.837,45.769 L40.835,50.129 L33.029,39.386 L33.028,37.291 L37.039,34.378 M36.141,27.708 L37.373,26.014 L50.004,21.91 L52.297,28.966 L39.667,33.069 L37.674,32.422 L36.141,27.708 M32.002,6.479 C17.905,6.479 6.479,17.901 6.479,31.995 C6.479,46.093 17.905,57.521 32.002,57.521 C46.093,57.521 57.521,46.093 57.521,31.995 C57.521,17.901 46.093,6.479 32.002,6.479 M32.002,0 L32.002,0 C49.646,0 64,14.353 64,31.995 C64,49.643 49.646,64 32.002,64 C14.356,64 0,49.643 0,31.995 C0,14.353 14.356,0 32.002,0 z M51.383,39.107 L52.018,37.151 L42.417,34.031 L41.782,35.987 L51.383,39.107 M39.139,23.694 L45.072,15.526 L43.408,14.319 L37.475,22.485 L39.139,23.694 M24.965,23.619 L26.629,22.411 L20.696,14.243 L19.032,15.452 L24.965,23.619 M12.577,38.984 L22.177,35.866 L21.543,33.911 L11.942,37.029 L12.577,38.984 M30.909,52.395 L30.909,42.301 L32.965,42.301 L32.965,52.395 L30.909,52.395 z"/>
  </g>
</svg>
