<?xml version="1.0" encoding="UTF-8"?>
<?xml-stylesheet href="vector.css" type="text/css"?>
<!DOCTYPE svg PUBLIC "-//W3C//DTD SVG 1.1//EN" "http://www.w3.org/Graphics/SVG/1.1/DTD/svg11.dtd">
<svg version="1.1" xmlns="http://www.w3.org/2000/svg" xmlns:xlink="http://www.w3.org/1999/xlink" x="0" y="0" width="64" height="64" viewBox="0, 0, 64, 64">
  <g id="Layer_1">
    <path d="M-0,-0 L64,-0 L64,64 L-0,64 z M16.828,53.483 C18.246,56.49 21.038,58.981 25.85,58.981 C31.177,58.981 34.828,56.146 34.828,49.917 L34.828,29.382 L28.814,29.382 L28.814,49.832 C28.814,52.839 27.568,53.612 25.592,53.612 C23.53,53.612 22.671,52.194 21.726,50.519 L16.828,53.483 M38.095,52.839 C39.856,56.319 43.465,58.982 49.05,58.982 C54.764,58.982 59.017,56.018 59.017,50.605 C59.017,45.578 56.138,43.345 51.026,41.154 L49.522,40.509 C46.945,39.392 45.828,38.662 45.828,36.857 C45.828,35.397 46.945,34.28 48.706,34.28 C50.425,34.28 51.541,35.01 52.573,36.857 L57.255,33.85 C55.279,30.37 52.53,29.038 48.706,29.038 C43.336,29.038 39.899,32.475 39.899,36.986 C39.899,41.884 42.778,44.204 47.117,46.051 L48.62,46.696 C51.37,47.898 53.002,48.628 53.002,50.691 C53.002,52.409 51.413,53.655 48.921,53.655 C45.957,53.655 44.281,52.108 42.992,50.003 L38.095,52.839"/>
  </g>
</svg>
