<?xml version="1.0" encoding="UTF-8"?>
<?xml-stylesheet href="vector.css" type="text/css"?>
<!DOCTYPE svg PUBLIC "-//W3C//DTD SVG 1.1//EN" "http://www.w3.org/Graphics/SVG/1.1/DTD/svg11.dtd">
<svg version="1.1" xmlns="http://www.w3.org/2000/svg" xmlns:xlink="http://www.w3.org/1999/xlink" x="0" y="0" width="630" height="630" viewBox="0, 0, 630, 630">
    <path d="M0,0 L630,0 L630,630 L0,630 z M165.65,526.469 C179.605,556.07 207.096,580.599 254.458,580.599 C306.899,580.599 342.842,552.688 342.842,491.367 L342.842,289.23 L283.639,289.23 L283.639,490.53 C283.639,520.13 271.374,527.74 251.92,527.74 C231.625,527.74 223.164,513.788 213.863,497.296 L165.65,526.474 M375,520.13 C392.336,554.386 427.86,580.604 482.836,580.604 C539.08,580.604 580.946,551.426 580.946,498.139 C580.946,448.663 552.611,426.674 502.286,405.105 L487.486,398.762 C462.115,387.766 451.119,380.576 451.119,362.814 C451.119,348.438 462.115,337.443 479.454,337.443 C496.369,337.443 507.361,344.631 517.511,362.814 L563.607,333.212 C544.156,298.957 517.091,285.846 479.454,285.846 C426.59,285.846 392.759,319.68 392.759,364.084 C392.759,412.294 421.094,435.13 463.809,453.311 L478.606,459.659 C505.673,471.496 521.741,478.686 521.741,498.985 C521.741,515.901 506.099,528.166 481.568,528.166 C452.389,528.166 435.896,512.943 423.206,492.219 L375,520.13"/>
</svg>
