<?xml version="1.0" encoding="UTF-8"?>
<!DOCTYPE svg PUBLIC "-//W3C//DTD SVG 1.1//EN" "http://www.w3.org/Graphics/SVG/1.1/DTD/svg11.dtd">
<svg version="1.1" xmlns="http://www.w3.org/2000/svg" xmlns:xlink="http://www.w3.org/1999/xlink" x="0" y="0" width="64" height="64" viewBox="0, 0, 64, 64">
  <g id="Background">
    <rect x="0" y="0" width="64" height="64" fill="#FFFFFF"/>
    <g stroke-width="1px">
      <line x1="1" y1="0" x2="1" y2="64" stroke="#AAAAAA" stroke-opacity="0.25"/>
      <line x1="2" y1="0" x2="2" y2="64" stroke="#AAAAAA" stroke-opacity="0.25"/>
      <line x1="3" y1="0" x2="3" y2="64" stroke="#AAAAAA" stroke-opacity="0.25"/>
      <line x1="4" y1="0" x2="4" y2="64" stroke="#AAAAAA" stroke-opacity="0.5"/>
      <line x1="5" y1="0" x2="5" y2="64" stroke="#AAAAAA" stroke-opacity="0.25"/>
      <line x1="6" y1="0" x2="6" y2="64" stroke="#AAAAAA" stroke-opacity="0.25"/>
      <line x1="7" y1="0" x2="7" y2="64" stroke="#AAAAAA" stroke-opacity="0.25"/>
      <line x1="8" y1="0" x2="8" y2="64" stroke="#AAAAAA" stroke-opacity="0.5"/>
      <line x1="9" y1="0" x2="9" y2="64" stroke="#AAAAAA" stroke-opacity="0.25"/>
      <line x1="10" y1="0" x2="10" y2="64" stroke="#AAAAAA" stroke-opacity="0.25"/>
      <line x1="11" y1="0" x2="11" y2="64" stroke="#AAAAAA" stroke-opacity="0.25"/>
      <line x1="12" y1="0" x2="12" y2="64" stroke="#AAAAAA" stroke-opacity="0.5"/>
      <line x1="13" y1="0" x2="13" y2="64" stroke="#AAAAAA" stroke-opacity="0.25"/>
      <line x1="14" y1="0" x2="14" y2="64" stroke="#AAAAAA" stroke-opacity="0.25"/>
      <line x1="15" y1="0" x2="15" y2="64" stroke="#AAAAAA" stroke-opacity="0.25"/>
      <line x1="16" y1="0" x2="16" y2="64" stroke="#AAAAAA" stroke-opacity="0.5"/>
      <line x1="17" y1="0" x2="17" y2="64" stroke="#AAAAAA" stroke-opacity="0.25"/>
      <line x1="18" y1="0" x2="18" y2="64" stroke="#AAAAAA" stroke-opacity="0.25"/>
      <line x1="19" y1="0" x2="19" y2="64" stroke="#AAAAAA" stroke-opacity="0.25"/>
      <line x1="20" y1="0" x2="20" y2="64" stroke="#AAAAAA" stroke-opacity="0.5"/>
      <line x1="21" y1="0" x2="21" y2="64" stroke="#AAAAAA" stroke-opacity="0.25"/>
      <line x1="22" y1="0" x2="22" y2="64" stroke="#AAAAAA" stroke-opacity="0.25"/>
      <line x1="23" y1="0" x2="23" y2="64" stroke="#AAAAAA" stroke-opacity="0.25"/>
      <line x1="24" y1="0" x2="24" y2="64" stroke="#AAAAAA" stroke-opacity="0.5"/>
      <line x1="25" y1="0" x2="25" y2="64" stroke="#AAAAAA" stroke-opacity="0.25"/>
      <line x1="26" y1="0" x2="26" y2="64" stroke="#AAAAAA" stroke-opacity="0.25"/>
      <line x1="27" y1="0" x2="27" y2="64" stroke="#AAAAAA" stroke-opacity="0.25"/>
      <line x1="28" y1="0" x2="28" y2="64" stroke="#AAAAAA" stroke-opacity="0.5"/>
      <line x1="29" y1="0" x2="29" y2="64" stroke="#AAAAAA" stroke-opacity="0.25"/>
      <line x1="30" y1="0" x2="30" y2="64" stroke="#AAAAAA" stroke-opacity="0.25"/>
      <line x1="31" y1="0" x2="31" y2="64" stroke="#AAAAAA" stroke-opacity="0.25"/>
      <line x1="32" y1="0" x2="32" y2="64" stroke="#AAAAAA" stroke-opacity="0.5"/>
      <line x1="33" y1="0" x2="33" y2="64" stroke="#AAAAAA" stroke-opacity="0.25"/>
      <line x1="34" y1="0" x2="34" y2="64" stroke="#AAAAAA" stroke-opacity="0.25"/>
      <line x1="35" y1="0" x2="35" y2="64" stroke="#AAAAAA" stroke-opacity="0.25"/>
      <line x1="36" y1="0" x2="36" y2="64" stroke="#AAAAAA" stroke-opacity="0.5"/>
      <line x1="37" y1="0" x2="37" y2="64" stroke="#AAAAAA" stroke-opacity="0.25"/>
      <line x1="38" y1="0" x2="38" y2="64" stroke="#AAAAAA" stroke-opacity="0.25"/>
      <line x1="39" y1="0" x2="39" y2="64" stroke="#AAAAAA" stroke-opacity="0.25"/>
      <line x1="40" y1="0" x2="40" y2="64" stroke="#AAAAAA" stroke-opacity="0.5"/>
      <line x1="41" y1="0" x2="41" y2="64" stroke="#AAAAAA" stroke-opacity="0.25"/>
      <line x1="42" y1="0" x2="42" y2="64" stroke="#AAAAAA" stroke-opacity="0.25"/>
      <line x1="43" y1="0" x2="43" y2="64" stroke="#AAAAAA" stroke-opacity="0.25"/>
      <line x1="44" y1="0" x2="44" y2="64" stroke="#AAAAAA" stroke-opacity="0.5"/>
      <line x1="45" y1="0" x2="45" y2="64" stroke="#AAAAAA" stroke-opacity="0.25"/>
      <line x1="46" y1="0" x2="46" y2="64" stroke="#AAAAAA" stroke-opacity="0.25"/>
      <line x1="47" y1="0" x2="47" y2="64" stroke="#AAAAAA" stroke-opacity="0.25"/>
      <line x1="48" y1="0" x2="48" y2="64" stroke="#AAAAAA" stroke-opacity="0.5"/>
      <line x1="49" y1="0" x2="49" y2="64" stroke="#AAAAAA" stroke-opacity="0.25"/>
      <line x1="50" y1="0" x2="50" y2="64" stroke="#AAAAAA" stroke-opacity="0.25"/>
      <line x1="51" y1="0" x2="51" y2="64" stroke="#AAAAAA" stroke-opacity="0.25"/>
      <line x1="52" y1="0" x2="52" y2="64" stroke="#AAAAAA" stroke-opacity="0.5"/>
      <line x1="53" y1="0" x2="53" y2="64" stroke="#AAAAAA" stroke-opacity="0.25"/>
      <line x1="54" y1="0" x2="54" y2="64" stroke="#AAAAAA" stroke-opacity="0.25"/>
      <line x1="55" y1="0" x2="55" y2="64" stroke="#AAAAAA" stroke-opacity="0.25"/>
      <line x1="56" y1="0" x2="56" y2="64" stroke="#AAAAAA" stroke-opacity="0.5"/>
      <line x1="57" y1="0" x2="57" y2="64" stroke="#AAAAAA" stroke-opacity="0.25"/>
      <line x1="58" y1="0" x2="58" y2="64" stroke="#AAAAAA" stroke-opacity="0.25"/>
      <line x1="59" y1="0" x2="59" y2="64" stroke="#AAAAAA" stroke-opacity="0.25"/>
      <line x1="60" y1="0" x2="60" y2="64" stroke="#AAAAAA" stroke-opacity="0.5"/>
      <line x1="61" y1="0" x2="61" y2="64" stroke="#AAAAAA" stroke-opacity="0.25"/>
      <line x1="62" y1="0" x2="62" y2="64" stroke="#AAAAAA" stroke-opacity="0.25"/>
      <line x1="63" y1="0" x2="63" y2="64" stroke="#AAAAAA" stroke-opacity="0.25"/>
      <line x1="64" y1="0" x2="64" y2="64" stroke="#AAAAAA" stroke-opacity="0.25"/>
      <line x1="0" y1="1" x2="64" y2="1" stroke="#AAAAAA" stroke-opacity="0.25"/>
      <line x1="0" y1="2" x2="64" y2="2" stroke="#AAAAAA" stroke-opacity="0.25"/>
      <line x1="0" y1="3" x2="64" y2="3" stroke="#AAAAAA" stroke-opacity="0.25"/>
      <line x1="0" y1="4" x2="64" y2="4" stroke="#AAAAAA" stroke-opacity="0.5"/>
      <line x1="0" y1="5" x2="64" y2="5" stroke="#AAAAAA" stroke-opacity="0.25"/>
      <line x1="0" y1="6" x2="64" y2="6" stroke="#AAAAAA" stroke-opacity="0.25"/>
      <line x1="0" y1="7" x2="64" y2="7" stroke="#AAAAAA" stroke-opacity="0.25"/>
      <line x1="0" y1="8" x2="64" y2="8" stroke="#AAAAAA" stroke-opacity="0.5"/>
      <line x1="0" y1="9" x2="64" y2="9" stroke="#AAAAAA" stroke-opacity="0.25"/>
      <line x1="0" y1="10" x2="64" y2="10" stroke="#AAAAAA" stroke-opacity="0.25"/>
      <line x1="0" y1="11" x2="64" y2="11" stroke="#AAAAAA" stroke-opacity="0.25"/>
      <line x1="0" y1="12" x2="64" y2="12" stroke="#AAAAAA" stroke-opacity="0.5"/>
      <line x1="0" y1="13" x2="64" y2="13" stroke="#AAAAAA" stroke-opacity="0.25"/>
      <line x1="0" y1="14" x2="64" y2="14" stroke="#AAAAAA" stroke-opacity="0.25"/>
      <line x1="0" y1="15" x2="64" y2="15" stroke="#AAAAAA" stroke-opacity="0.25"/>
      <line x1="0" y1="16" x2="64" y2="16" stroke="#AAAAAA" stroke-opacity="0.5"/>
      <line x1="0" y1="17" x2="64" y2="17" stroke="#AAAAAA" stroke-opacity="0.25"/>
      <line x1="0" y1="18" x2="64" y2="18" stroke="#AAAAAA" stroke-opacity="0.25"/>
      <line x1="0" y1="19" x2="64" y2="19" stroke="#AAAAAA" stroke-opacity="0.25"/>
      <line x1="0" y1="20" x2="64" y2="20" stroke="#AAAAAA" stroke-opacity="0.5"/>
      <line x1="0" y1="21" x2="64" y2="21" stroke="#AAAAAA" stroke-opacity="0.25"/>
      <line x1="0" y1="22" x2="64" y2="22" stroke="#AAAAAA" stroke-opacity="0.25"/>
      <line x1="0" y1="23" x2="64" y2="23" stroke="#AAAAAA" stroke-opacity="0.25"/>
      <line x1="0" y1="24" x2="64" y2="24" stroke="#AAAAAA" stroke-opacity="0.5"/>
      <line x1="0" y1="25" x2="64" y2="25" stroke="#AAAAAA" stroke-opacity="0.25"/>
      <line x1="0" y1="26" x2="64" y2="26" stroke="#AAAAAA" stroke-opacity="0.25"/>
      <line x1="0" y1="27" x2="64" y2="27" stroke="#AAAAAA" stroke-opacity="0.25"/>
      <line x1="0" y1="28" x2="64" y2="28" stroke="#AAAAAA" stroke-opacity="0.5"/>
      <line x1="0" y1="29" x2="64" y2="29" stroke="#AAAAAA" stroke-opacity="0.25"/>
      <line x1="0" y1="30" x2="64" y2="30" stroke="#AAAAAA" stroke-opacity="0.25"/>
      <line x1="0" y1="31" x2="64" y2="31" stroke="#AAAAAA" stroke-opacity="0.25"/>
      <line x1="0" y1="32" x2="64" y2="32" stroke="#AAAAAA" stroke-opacity="0.5"/>
      <line x1="0" y1="33" x2="64" y2="33" stroke="#AAAAAA" stroke-opacity="0.25"/>
      <line x1="0" y1="34" x2="64" y2="34" stroke="#AAAAAA" stroke-opacity="0.25"/>
      <line x1="0" y1="35" x2="64" y2="35" stroke="#AAAAAA" stroke-opacity="0.25"/>
      <line x1="0" y1="36" x2="64" y2="36" stroke="#AAAAAA" stroke-opacity="0.5"/>
      <line x1="0" y1="37" x2="64" y2="37" stroke="#AAAAAA" stroke-opacity="0.25"/>
      <line x1="0" y1="38" x2="64" y2="38" stroke="#AAAAAA" stroke-opacity="0.25"/>
      <line x1="0" y1="39" x2="64" y2="39" stroke="#AAAAAA" stroke-opacity="0.25"/>
      <line x1="0" y1="40" x2="64" y2="40" stroke="#AAAAAA" stroke-opacity="0.5"/>
      <line x1="0" y1="41" x2="64" y2="41" stroke="#AAAAAA" stroke-opacity="0.25"/>
      <line x1="0" y1="42" x2="64" y2="42" stroke="#AAAAAA" stroke-opacity="0.25"/>
      <line x1="0" y1="43" x2="64" y2="43" stroke="#AAAAAA" stroke-opacity="0.25"/>
      <line x1="0" y1="44" x2="64" y2="44" stroke="#AAAAAA" stroke-opacity="0.5"/>
      <line x1="0" y1="45" x2="64" y2="45" stroke="#AAAAAA" stroke-opacity="0.25"/>
      <line x1="0" y1="46" x2="64" y2="46" stroke="#AAAAAA" stroke-opacity="0.25"/>
      <line x1="0" y1="47" x2="64" y2="47" stroke="#AAAAAA" stroke-opacity="0.25"/>
      <line x1="0" y1="48" x2="64" y2="48" stroke="#AAAAAA" stroke-opacity="0.5"/>
      <line x1="0" y1="49" x2="64" y2="49" stroke="#AAAAAA" stroke-opacity="0.25"/>
      <line x1="0" y1="50" x2="64" y2="50" stroke="#AAAAAA" stroke-opacity="0.25"/>
      <line x1="0" y1="51" x2="64" y2="51" stroke="#AAAAAA" stroke-opacity="0.25"/>
      <line x1="0" y1="52" x2="64" y2="52" stroke="#AAAAAA" stroke-opacity="0.5"/>
      <line x1="0" y1="53" x2="64" y2="53" stroke="#AAAAAA" stroke-opacity="0.25"/>
      <line x1="0" y1="54" x2="64" y2="54" stroke="#AAAAAA" stroke-opacity="0.25"/>
      <line x1="0" y1="55" x2="64" y2="55" stroke="#AAAAAA" stroke-opacity="0.25"/>
      <line x1="0" y1="56" x2="64" y2="56" stroke="#AAAAAA" stroke-opacity="0.5"/>
      <line x1="0" y1="57" x2="64" y2="57" stroke="#AAAAAA" stroke-opacity="0.25"/>
      <line x1="0" y1="58" x2="64" y2="58" stroke="#AAAAAA" stroke-opacity="0.25"/>
      <line x1="0" y1="59" x2="64" y2="59" stroke="#AAAAAA" stroke-opacity="0.25"/>
      <line x1="0" y1="60" x2="64" y2="60" stroke="#AAAAAA" stroke-opacity="0.5"/>
      <line x1="0" y1="61" x2="64" y2="61" stroke="#AAAAAA" stroke-opacity="0.25"/>
      <line x1="0" y1="62" x2="64" y2="62" stroke="#AAAAAA" stroke-opacity="0.25"/>
      <line x1="0" y1="63" x2="64" y2="63" stroke="#AAAAAA" stroke-opacity="0.25"/>
      <line x1="0" y1="64" x2="64" y2="64" stroke="#AAAAAA" stroke-opacity="0.25"/>
    </g>
  </g>
  <g id="Layer_1" display="none">
    <g>
      <path d="M2.5,16.5 L62.5,16.5 L62.5,48.5 L2.5,48.5 L2.5,16.5 z" fill="#000000"/>
      <path d="M2.5,16.5 L62.5,16.5 L62.5,48.5 L2.5,48.5 L2.5,16.5 z" fill-opacity="0" stroke="#000000" stroke-width="4" stroke-linejoin="round"/>
    </g>
    <path d="M0.5,29.5 L64.5,29.5" fill-opacity="0" stroke="#FFFFFF" stroke-width="2"/>
    <path d="M21.5,7.5 L43.5,7.5 L43.5,15.5 L21.5,15.5 L21.5,7.5 z" fill-opacity="0" stroke="#000000" stroke-width="2" stroke-linejoin="round"/>
    <g>
      <path d="M30.5,26.5 L34.5,26.5 L34.5,34.5 L30.5,34.5 L30.5,26.5 z" fill="#FFFFFF"/>
      <path d="M30.5,26.5 L34.5,26.5 L34.5,34.5 L30.5,34.5 L30.5,26.5 z" fill-opacity="0" stroke="#FFFFFF" stroke-width="2" stroke-linejoin="round"/>
    </g>
  </g>
  <g id="Layer_2" display="none">
    <path d="M32.5,5.5 C47.412,5.5 59.5,17.588 59.5,32.5 C59.5,47.412 47.412,59.5 32.5,59.5" fill-opacity="0" stroke="#000000" stroke-width="2" stroke-linecap="round" display="none"/>
    <path d="M32.5,5.5 C17.588,5.5 5.5,17.588 5.5,32.5 C5.5,47.412 17.588,59.5 32.5,59.5" fill-opacity="0" stroke="#000000" stroke-width="2" stroke-linecap="round" display="none"/>
    <path d="M30.5,10.5 C30.5,10.5 34.5,6.5 34.5,6.5 L30.5,2.5" fill-opacity="0" stroke="#000000" stroke-width="2" stroke-linecap="round" stroke-linejoin="round"/>
    <path d="M13.581,46.732 C13.581,46.732 8.117,45.268 8.117,45.268 L6.653,50.732" fill-opacity="0" stroke="#000000" stroke-width="2" stroke-linecap="round" stroke-linejoin="round"/>
    <path d="M53.419,43.268 C53.419,43.268 54.883,48.732 54.883,48.732 L60.347,47.268" fill-opacity="0" stroke="#000000" stroke-width="2" stroke-linecap="round" stroke-linejoin="round"/>
    <path d="M20.5,33.5 L28.5,41.5 L44.5,25.5" fill-opacity="0" stroke="#000000" stroke-width="4" stroke-linecap="round" stroke-linejoin="round"/>
    <path d="M32.5,60.5 C17.588,60.5 5.5,48.412 5.5,33.5 C5.5,18.588 17.588,6.5 32.5,6.5 C47.412,6.5 59.5,18.588 59.5,33.5 C59.5,48.412 47.412,60.5 32.5,60.5 z" fill-opacity="0" stroke="#000000" stroke-width="2"/>
  </g>
  <g id="Layer_2_Copy">
    <path d="M32.5,5.5 C47.412,5.5 59.5,17.588 59.5,32.5 C59.5,47.412 47.412,59.5 32.5,59.5" fill-opacity="0" stroke="#000000" stroke-width="2" stroke-linecap="round" display="none"/>
    <path d="M32.5,5.5 C17.588,5.5 5.5,17.588 5.5,32.5 C5.5,47.412 17.588,59.5 32.5,59.5" fill-opacity="0" stroke="#000000" stroke-width="2" stroke-linecap="round" display="none"/>
    <path d="M29.909,1 L30.376,1.016 L30.707,1.236 L34.707,5.236 C35.098,5.626 35.098,6.259 34.707,6.65 C34.206,7.151 33.704,7.653 33.203,8.154 C32.371,8.986 31.539,9.818 30.707,10.65 C30.317,11.041 29.683,11.041 29.293,10.65 C28.902,10.259 28.902,9.626 29.293,9.236 C29.794,8.734 30.295,8.233 30.797,7.732 C31.393,7.135 31.989,6.539 32.586,5.943 L29.293,2.65 C28.902,2.259 28.902,1.626 29.293,1.236 C29.661,0.985 29.457,1.066 29.909,1 z" fill="#000000"/>
    <path d="M7.48,43.72 L7.876,43.745 C8.561,43.928 9.246,44.112 9.93,44.295 C11.067,44.6 12.204,44.904 13.34,45.209 C13.874,45.352 14.19,45.9 14.047,46.434 C13.904,46.967 13.356,47.284 12.822,47.141 C12.138,46.957 11.453,46.774 10.768,46.59 C9.954,46.372 9.139,46.154 8.324,45.936 L7.119,50.434 C6.976,50.967 6.428,51.284 5.894,51.141 C5.361,50.998 5.044,50.45 5.187,49.916 L6.651,44.452 C6.94,43.872 6.713,44.162 7.48,43.72 z" fill="#000000"/>
    <path d="M53.056,41.72 C53.822,42.162 53.596,41.872 53.884,42.452 C54.068,43.135 54.068,43.135 54.616,45.184 C54.774,45.773 54.932,46.361 55.09,46.95 L59.588,45.745 C60.121,45.602 60.67,45.919 60.813,46.452 C60.956,46.985 60.639,47.534 60.106,47.677 L54.641,49.141 C54.108,49.284 53.56,48.967 53.417,48.434 C53.234,47.751 53.234,47.751 52.685,45.702 C52.136,43.653 52.136,43.653 51.953,42.97 C51.81,42.436 52.126,41.888 52.66,41.745 L53.056,41.72 z" fill="#000000"/>
    <path d="M43.574,23.039 C44.381,23.09 43.988,23.075 44.753,23.089 L45.414,23.529 C46.195,24.31 46.195,25.576 45.414,26.357 L29.414,42.357 C28.633,43.138 27.367,43.138 26.586,42.357 L18.586,34.357 C17.805,33.576 17.805,32.31 18.586,31.529 C19.367,30.748 20.633,30.748 21.414,31.529 L28,38.114 L42.586,23.529 C42.929,23.284 43.151,23.09 43.574,23.039 z" fill="#000000"/>
    <path d="M32,4.943 C47.464,4.943 60,17.479 60,32.943 C60,48.407 47.464,60.943 32,60.943 C16.536,60.943 4,48.407 4,32.943 C4,17.479 16.536,4.943 32,4.943 z M32,6.943 C17.641,6.943 6,18.583 6,32.943 C6,47.302 17.641,58.943 32,58.943 C46.359,58.943 58,47.302 58,32.943 C58,18.583 46.359,6.943 32,6.943 z" fill="#000000"/>
  </g>
</svg>
