<?xml version="1.0" encoding="UTF-8"?>
<!DOCTYPE svg PUBLIC "-//W3C//DTD SVG 1.1//EN" "http://www.w3.org/Graphics/SVG/1.1/DTD/svg11.dtd">
<svg version="1.1" xmlns="http://www.w3.org/2000/svg" xmlns:xlink="http://www.w3.org/1999/xlink" x="0" y="0" width="64" height="64" viewBox="0, 0, 64, 64">
  <g id="Layer_1">
    <path d="M50.931,37.316 C50.931,42.426 46.67,45.353 39.238,45.353 C28.976,45.353 26.826,40.642 26.826,36.691 C26.826,36.315 27.128,36.015 27.503,36.015 L30.536,36.015 C30.874,36.015 31.157,36.258 31.209,36.589 C31.667,39.676 33.032,41.235 39.238,41.235 C44.18,41.235 46.283,40.117 46.283,37.495 C46.283,35.984 45.687,34.862 38.009,34.111 C31.591,33.475 27.623,32.058 27.623,26.924 C27.623,22.192 31.611,19.37 38.298,19.37 C45.812,19.37 49.529,21.978 50,27.573 C50.018,27.766 49.949,27.95 49.821,28.094 C49.693,28.229 49.514,28.31 49.325,28.31 L46.281,28.31 C45.965,28.31 45.687,28.087 45.622,27.781 C44.892,24.533 43.116,23.495 38.298,23.495 C32.904,23.495 32.277,25.374 32.277,26.782 C32.277,28.488 33.017,28.985 40.3,29.949 C47.508,30.901 50.931,32.25 50.931,37.316 z M31.994,64 C31.137,64 30.284,63.776 29.535,63.342 L21.704,58.708 C20.535,58.054 21.106,57.823 21.491,57.688 C23.052,57.147 23.367,57.023 25.032,56.078 C25.206,55.98 25.435,56.018 25.614,56.122 L31.63,59.695 C31.848,59.815 32.156,59.815 32.356,59.695 L55.81,46.158 C56.028,46.033 56.168,45.781 56.168,45.523 L56.168,18.457 C56.168,18.192 56.028,17.944 55.804,17.81 L32.36,4.285 C32.144,4.158 31.856,4.158 31.638,4.285 L8.2,17.814 C7.972,17.944 7.828,18.2 7.828,18.457 L7.828,45.523 C7.828,45.781 7.972,46.027 8.199,46.149 L14.623,49.862 C18.109,51.605 20.243,49.552 20.243,47.489 L20.243,20.766 C20.243,20.389 20.547,20.091 20.925,20.091 L23.899,20.091 C24.27,20.091 24.578,20.389 24.578,20.766 L24.578,47.489 C24.578,52.143 22.045,54.81 17.634,54.81 C16.278,54.81 15.211,54.81 12.232,53.342 L6.081,49.801 C4.562,48.923 3.622,47.281 3.622,45.523 L3.622,18.457 C3.622,16.698 4.562,15.056 6.081,14.182 L29.535,0.63 C31.018,-0.21 32.991,-0.21 34.464,0.63 L57.915,14.182 C59.434,15.06 60.378,16.698 60.378,18.457 L60.378,45.523 C60.378,47.281 59.434,48.917 57.915,49.801 L34.464,63.342 C33.714,63.776 32.863,64 31.994,64" fill="#0B0B09"/>
  </g>
</svg>
