<?xml version="1.0" encoding="UTF-8"?>
<!DOCTYPE svg PUBLIC "-//W3C//DTD SVG 1.1//EN" "http://www.w3.org/Graphics/SVG/1.1/DTD/svg11.dtd">
<svg version="1.1" xmlns="http://www.w3.org/2000/svg" xmlns:xlink="http://www.w3.org/1999/xlink" x="0" y="0" width="64" height="64" viewBox="0, 0, 64, 64">
  <g id="Layer_1">
    <path d="M32,-0 C49.673,-0 64,14.327 64,32 C64,49.673 49.673,64 32,64 C14.327,64 -0,49.673 -0,32 C-0,14.327 14.327,-0 32,-0 z M32,7 C18.193,7 7,18.193 7,32 C7,45.807 18.193,57 32,57 C45.807,57 57,45.807 57,32 C57,18.193 45.807,7 32,7 z M32,9 C44.703,9 55,19.298 55,32 C55,44.703 44.703,55 32,55 C19.298,55 9,44.703 9,32 C9,19.298 19.298,9 32,9 z M31.764,14.001 C24.939,14.221 20.339,16.98 16.343,22.897 C15.725,23.813 15.966,25.056 16.881,25.674 C17.796,26.292 19.04,26.051 19.658,25.136 C22.963,20.241 26.407,18.176 31.892,17.999 C32.996,17.963 33.862,17.04 33.827,15.936 C33.791,14.832 32.868,13.966 31.764,14.001 z" fill="#000000"/>
  </g>
</svg>
