<?xml version="1.0" encoding="UTF-8"?>
<!DOCTYPE svg PUBLIC "-//W3C//DTD SVG 1.1//EN" "http://www.w3.org/Graphics/SVG/1.1/DTD/svg11.dtd">
<svg version="1.1" xmlns="http://www.w3.org/2000/svg" xmlns:xlink="http://www.w3.org/1999/xlink" x="0" y="0" width="64" height="60" viewBox="0, 0, 64, 60">
  <g id="Layer_1_Copy" transform="translate(-0, -2)">
    <path d="M18.326,54 C17.953,54.886 18.177,54.248 18,56 C18.177,57.752 17.953,57.114 18.326,58 L2,58 C0.895,58 -0,57.105 0,56 C-0,54.896 0.895,54 2,54 L18.326,54 z M62,54 L33.674,54 C34.047,54.886 33.823,54.248 34,56 C33.823,57.752 34.047,57.114 33.674,58 L62,58 C63.105,58 64,57.105 64,56 C64,54.896 63.105,54 62,54 z M57.674,38 C58.047,38.886 57.823,38.248 58,40 C57.823,41.752 58.047,41.114 57.674,42 L62,42 C63.105,42 64,41.105 64,40 C64,38.896 63.105,38 62,38 L57.674,38 z M2,38 L2,38 C0.895,38 -0,38.896 0,40 C-0,41.105 0.895,42 2,42 L42.326,42 C41.953,41.114 42.177,41.752 42,40 C42.177,38.248 41.953,38.886 42.326,38 L2,38 z M30.326,6 L2,6 C0.895,6 -0,6.896 0,8 C-0,9.105 0.895,10 2,10 L30.326,10 C29.953,9.114 30.177,9.752 30,8 C30.177,6.248 29.953,6.886 30.326,6 z M62,6 L45.674,6 C46.047,6.886 45.823,6.248 46,8 C45.823,9.752 46.047,9.114 45.674,10 L62,10 C63.105,10 64,9.105 64,8 C64,6.896 63.105,6 62,6 z M21.674,22 C22.047,22.886 21.823,22.248 22,24 C21.823,25.752 22.047,25.114 21.674,26 L62,26 C63.105,26 64,25.105 64,24 C64,22.896 63.105,22 62,22 L21.674,22 z M2,22 C0.895,22 -0,22.896 0,24 C-0,25.105 0.895,26 2,26 L6.326,26 C5.953,25.114 6.177,25.752 6,24 C6.177,22.248 5.953,22.886 6.326,22 L2,22 z M56,40 C56,36.686 53.314,34 50,34 C46.686,34 44,36.686 44,40 C44,43.314 46.686,46 50,46 C53.314,46 56,43.314 56,40 z M20,24 C20,20.686 17.314,18 14,18 C10.686,18 8,20.686 8,24 C8,27.314 10.686,30 14,30 C17.314,30 20,27.314 20,24 z M44,8 C44,4.686 41.314,2 38,2 C34.686,2 32,4.686 32,8 C32,11.314 34.686,14 38,14 C41.314,14 44,11.314 44,8 z M32,56 C32,52.686 29.314,50 26,50 C22.686,50 20,52.686 20,56 C20,59.314 22.686,62 26,62 C29.314,62 32,59.314 32,56 z" fill="#000000"/>
  </g>
</svg>
