<?xml version="1.0" encoding="UTF-8"?>
<!DOCTYPE svg PUBLIC "-//W3C//DTD SVG 1.1//EN" "http://www.w3.org/Graphics/SVG/1.1/DTD/svg11.dtd">
<svg version="1.1" xmlns="http://www.w3.org/2000/svg" xmlns:xlink="http://www.w3.org/1999/xlink" x="0" y="0" width="64" height="64" viewBox="0, 0, 64, 64">
  <g id="Layer_1">
    <path d="M1.36,9.825 L54.688,9.825 C55.44,9.825 56.048,10.434 56.048,11.185 L56.048,28.055 L41.145,28.055 C39.944,28.055 38.969,29.032 38.969,30.231 L38.969,46.828 L33.214,46.828 L35.582,52.98 C35.582,53.49 35.17,53.902 34.659,53.902 L21.389,53.902 C20.88,53.902 20.467,53.491 20.467,52.98 L22.834,46.828 L1.36,46.828 C0.608,46.828 0,46.218 0,45.468 L0,11.185 C0,10.434 0.608,9.825 1.36,9.825 z M55.566,52.814 L55.566,40.299 C55.566,39.548 56.174,38.938 56.926,38.938 L62.64,38.938 C63.391,38.938 64,39.547 64,40.299 L64,52.814 C64,53.565 63.392,54.175 62.64,54.175 L56.926,54.175 C56.175,54.175 55.566,53.566 55.566,52.814 z M54.524,53.562 L41.145,53.562 C40.584,53.562 40.125,53.104 40.125,52.542 L40.125,30.231 C40.125,29.668 40.584,29.211 41.145,29.211 L58.287,29.211 C58.848,29.211 59.306,29.669 59.306,30.231 L59.306,37.782 L56.926,37.782 C55.538,37.782 54.41,38.91 54.41,40.299 L54.41,52.814 C54.41,53.067 54.449,53.32 54.524,53.562 z" fill="#000000"/>
  </g>
</svg>
