<?xml version="1.0" encoding="UTF-8"?>
<?xml-stylesheet href="vector.css" type="text/css"?>
<!DOCTYPE svg PUBLIC "-//W3C//DTD SVG 1.1//EN" "http://www.w3.org/Graphics/SVG/1.1/DTD/svg11.dtd">
<svg version="1.1" xmlns="http://www.w3.org/2000/svg" xmlns:xlink="http://www.w3.org/1999/xlink" x="0" y="0" width="64" height="64" viewBox="0, 0, 64, 64">
  <g id="Layer_1">
    <path d="M23.599,46.144 C24.215,48.422 24.147,50.547 23.511,52.471 C23.44,52.684 23.362,52.896 23.278,53.105 C23.193,53.313 23.102,53.52 23.004,53.723 C22.513,54.741 21.855,55.694 21.049,56.573 C18.589,59.257 15.153,60.271 13.679,59.416 C12.088,58.494 12.885,54.711 15.737,51.697 C18.804,48.453 23.218,46.368 23.218,46.368 L23.212,46.355 C23.339,46.287 23.468,46.216 23.599,46.144 z M58.565,7.829 C56.648,0.311 44.182,-2.161 32.383,2.031 C25.362,4.526 17.76,8.441 12.295,13.553 C5.796,19.631 4.76,24.922 5.187,27.133 C6.694,34.933 17.382,40.031 21.775,43.814 L21.775,43.837 C20.48,44.475 10.998,49.274 8.778,54.18 C6.437,59.355 9.151,63.069 10.948,63.569 C16.516,65.118 22.229,62.332 25.299,57.752 C28.262,53.333 28.016,47.626 26.728,44.787 C28.504,44.318 30.575,44.108 33.206,44.416 C40.632,45.283 42.089,49.92 41.811,51.86 C41.532,53.8 39.975,54.867 39.454,55.189 C38.933,55.512 38.774,55.623 38.818,55.863 C38.881,56.211 39.122,56.198 39.566,56.123 C40.177,56.02 43.466,54.544 43.606,50.962 C43.785,46.415 39.427,41.327 31.71,41.46 C28.532,41.515 26.534,41.817 25.09,42.355 C24.984,42.233 24.875,42.112 24.763,41.992 C19.992,36.902 11.173,33.302 11.547,26.459 C11.683,23.972 12.547,17.421 28.493,9.476 C41.555,2.967 52.012,4.758 53.819,8.727 C56.4,14.398 48.231,24.939 34.665,26.459 C29.497,27.039 26.776,25.035 26.099,24.29 C25.386,23.504 25.28,23.469 25.014,23.616 C24.58,23.856 24.855,24.55 25.014,24.963 C25.419,26.017 27.081,27.886 29.915,28.816 C32.407,29.634 38.475,30.083 45.814,27.245 C54.032,24.066 60.45,15.222 58.565,7.829"/>
  </g>
</svg>
