<?xml version="1.0" encoding="UTF-8"?>
<!DOCTYPE svg PUBLIC "-//W3C//DTD SVG 1.1//EN" "http://www.w3.org/Graphics/SVG/1.1/DTD/svg11.dtd">
<svg version="1.1" xmlns="http://www.w3.org/2000/svg" xmlns:xlink="http://www.w3.org/1999/xlink" x="0" y="0" width="64" height="64" viewBox="0, 0, 64, 64">
  <g id="Layer_1">
    <path d="M24,-0 C37.255,-0 48,10.745 48,24 C48.015,28.025 46.934,31.87 45.103,35.44 C44.664,36.296 44.027,37.034 43.488,37.831 L62.828,57.171 C64.391,58.734 64.391,61.266 62.828,62.828 C61.266,64.391 58.734,64.391 57.172,62.828 L37.832,43.488 C33.844,46.639 28.968,47.749 24,48 C10.745,48 0,37.255 0,24 C0,10.745 10.745,-0 24,-0 z M24,4 C12.954,4 4,12.954 4,24 C4,35.046 12.954,44 24,44 C35.046,44 44,35.046 44,24 C44,12.954 35.046,4 24,4 z" fill="#000000"/>
  </g>
</svg>
