<?xml version="1.0" encoding="UTF-8"?>
<!DOCTYPE svg PUBLIC "-//W3C//DTD SVG 1.1//EN" "http://www.w3.org/Graphics/SVG/1.1/DTD/svg11.dtd">
<svg version="1.1" xmlns="http://www.w3.org/2000/svg" xmlns:xlink="http://www.w3.org/1999/xlink" x="0" y="0" width="64" height="64" viewBox="0, 0, 64, 64">
  <g id="Layer_1">
    <path d="M62,46 C63.105,46 64,46.895 64,48 L64,62 C64,63.105 63.105,64 62,64 L2,64 C0.895,64 0,63.105 0,62 L0,48 C0,46.895 0.895,46 2,46 L62,46 z M9,52 C7.343,52 6,53.343 6,55 C6,56.657 7.343,58 9,58 C10.657,58 12,56.657 12,55 C12,53.343 10.657,52 9,52 z M58,54 L33,54 C32.448,54 32,54.448 32,55 C32,55.552 32.448,56 33,56 L58,56 C58.552,56 59,55.552 59,55 C59,54.448 58.552,54 58,54 z M58,31 C58.552,31 59,31.448 59,32 C59,32.552 58.552,33 58,33 L33,33 C32.448,33 32,32.552 32,32 C32,31.448 32.448,31 33,31 L58,31 z M9,29 C10.657,29 12,30.343 12,32 C12,33.657 10.657,35 9,35 C7.343,35 6,33.657 6,32 C6,30.343 7.343,29 9,29 z M62,23 L2,23 C0.895,23 0,23.895 -0,25 L0,39 C0,40.105 0.895,41 2,41 L62,41 C63.105,41 64,40.105 64,39 L64,25 C64,23.895 63.105,23 62,23 z M58,8 C58.552,8 59,8.448 59,9 C59,9.552 58.552,10 58,10 L33,10 C32.448,10 32,9.552 32,9 C32,8.448 32.448,8 33,8 L58,8 z M9,6 C10.657,6 12,7.343 12,9 C12,10.657 10.657,12 9,12 L9,12 C7.343,12 6,10.657 6,9 C6,7.343 7.343,6 9,6 z M62,0 L2,0 C0.895,0 -0,0.895 -0,2 L-0,16 C-0,17.105 0.895,18 2,18 L62,18 C63.105,18 64,17.105 64,16 L64,2 C64,0.895 63.105,0 62,0 z" fill="#000000"/>
  </g>
</svg>
