<svg xmlns="http://www.w3.org/2000/svg" style="display: none">
  <symbol id="angular" viewBox="0 0 64 64">
  	<path d="M31.904,-0 L62.095,10.409 L57.356,49.859 L31.936,64 L6.645,50.048 L1.905,10.597 L31.904,-0 z M31.834,5.436 L31.833,5.437 L31.833,5.436 L31.833,5.437 L13.286,46.853 L20.203,46.725 L23.922,37.388 L31.834,37.388 L31.852,37.38 L40.545,37.388 L44.617,46.855 L51.236,46.978 L31.835,5.438 L31.834,5.436 z M31.883,18.716 L38.148,31.871 L32.135,31.871 L31.833,31.861 L26.363,31.861 L31.883,18.716 z"/>
  </symbol>
  <symbol id="css" viewBox="0 0 64 64">
  	<path d="M9.52,3.041 L64,3.041 L54.371,51.294 L25.267,60.959 L-0,51.294 L2.57,38.407 L13.321,38.407 L12.271,43.729 L27.548,49.557 L45.14,43.729 L47.602,31.457 L3.873,31.457 L5.973,20.706 L49.738,20.706 L51.113,13.792 L7.385,13.792 z"/>
  </symbol>
  <symbol id="email" viewBox="0 0 64 64">
  	<path d="M32,39.326 L63.999,17.566 L63.999,53.12 L0,53.12 L0,17.566 z M32,32.64 L0,10.88 L64,10.88 z"/>
  </symbol>
  <symbol id="github" viewBox="0 0 64 64">
  	<path d="M64,32 Q64,42.458 57.896,50.812 Q51.792,59.167 42.125,62.375 Q41,62.583 40.479,62.083 Q39.958,61.583 39.958,60.833 L39.958,52.042 Q39.958,48 37.792,46.125 Q40.167,45.875 42.062,45.375 Q43.958,44.875 45.979,43.75 Q48,42.625 49.354,40.979 Q50.708,39.333 51.562,36.604 Q52.417,33.875 52.417,30.333 Q52.417,25.292 49.125,21.75 Q50.667,17.958 48.792,13.25 Q47.625,12.875 45.417,13.708 Q43.208,14.542 41.583,15.542 L40,16.542 Q36.125,15.458 32,15.458 Q27.875,15.458 24,16.542 Q23.333,16.083 22.229,15.417 Q21.125,14.75 18.75,13.812 Q16.375,12.875 15.167,13.25 Q13.333,17.958 14.875,21.75 Q11.583,25.292 11.583,30.333 Q11.583,33.875 12.437,36.583 Q13.292,39.292 14.625,40.958 Q15.958,42.625 17.979,43.75 Q20,44.875 21.896,45.375 Q23.792,45.875 26.167,46.125 Q24.5,47.625 24.125,50.417 Q23.25,50.833 22.25,51.042 Q21.25,51.25 19.875,51.25 Q18.5,51.25 17.146,50.354 Q15.792,49.458 14.833,47.75 Q14.042,46.417 12.812,45.583 Q11.583,44.75 10.75,44.583 L9.917,44.458 Q9.042,44.458 8.708,44.646 Q8.375,44.833 8.5,45.125 Q8.625,45.417 8.875,45.708 Q9.125,46 9.417,46.208 L9.708,46.417 Q10.625,46.833 11.521,48 Q12.417,49.167 12.833,50.125 L13.25,51.083 Q13.792,52.667 15.083,53.646 Q16.375,54.625 17.875,54.896 Q19.375,55.167 20.771,55.188 Q22.167,55.208 23.083,55.042 L24.042,54.875 Q24.042,56.458 24.062,58.583 Q24.083,60.708 24.083,60.833 Q24.083,61.583 23.542,62.083 Q23,62.583 21.875,62.375 Q12.208,59.167 6.104,50.812 Q-0,42.458 -0,32 Q-0,23.292 4.292,15.938 Q8.583,8.583 15.937,4.292 Q23.292,0 32,0 Q40.708,0 48.062,4.292 Q55.417,8.583 59.708,15.938 Q64,23.292 64,32 z"/>
  </symbol>
  <symbol id="heart" viewBox="0 0 64 64">
  	<path d="M32,61.267 C34.524,58.744 48.933,44.326 57.941,35.32 C66.011,27.249 65.839,15.485 58.501,8.187 C51.164,0.887 39.299,0.919 32,8.257 C24.701,0.919 12.836,0.887 5.498,8.187 C-1.839,15.485 -2.011,27.249 6.059,35.32 C15.066,44.326 29.477,58.744 32,61.267 z"/>
  </symbol>
  <symbol id="html" viewBox="0 0 64 64">
  	<path d="M49.04,18.76 L49.68,11.76 L14.32,11.76 L16.2,33.12 L40.68,33.12 L39.8,42.24 L31.92,44.36 L24.08,42.24 L23.56,36.64 L16.56,36.64 L17.44,47.76 L31.92,51.76 L32.08,51.76 L32.08,51.72 L46.44,47.76 L48.44,26 L22.68,26 L22.08,18.76 L49.04,18.76 z M3.84,0 L60.16,0 L55.04,57.52 L31.92,64 L8.96,57.52 z"/>
  </symbol>
  <symbol id="jasmine" viewBox="0 0 64 64">
  	<path d="M29.521,26.5 L34.479,26.5 L35.71,24.805 L35.71,11.526 L28.291,11.526 L28.291,24.806 L29.521,26.5 M26.326,32.423 L24.335,33.07 L11.703,28.966 L13.996,21.91 L26.626,26.014 L27.858,27.709 L26.326,32.423 M30.972,37.292 L30.972,39.386 L23.165,50.129 L17.164,45.769 L24.969,35.026 L26.962,34.378 L30.972,37.292 M37.039,34.378 L39.03,35.025 L46.837,45.769 L40.835,50.129 L33.029,39.386 L33.028,37.291 L37.039,34.378 M36.141,27.708 L37.373,26.014 L50.004,21.91 L52.297,28.966 L39.667,33.069 L37.674,32.422 L36.141,27.708 M32.002,6.479 C17.905,6.479 6.479,17.901 6.479,31.995 C6.479,46.093 17.905,57.521 32.002,57.521 C46.093,57.521 57.521,46.093 57.521,31.995 C57.521,17.901 46.093,6.479 32.002,6.479 M32.002,0 L32.002,0 C49.646,0 64,14.353 64,31.995 C64,49.643 49.646,64 32.002,64 C14.356,64 0,49.643 0,31.995 C0,14.353 14.356,0 32.002,0 z M51.383,39.107 L52.018,37.151 L42.417,34.031 L41.782,35.987 L51.383,39.107 M39.139,23.694 L45.072,15.526 L43.408,14.319 L37.475,22.485 L39.139,23.694 M24.965,23.619 L26.629,22.411 L20.696,14.243 L19.032,15.452 L24.965,23.619 M12.577,38.984 L22.177,35.866 L21.543,33.911 L11.942,37.029 L12.577,38.984 M30.909,52.395 L30.909,42.301 L32.965,42.301 L32.965,52.395 L30.909,52.395 z"/>
  </symbol>
  <symbol id="js" viewBox="0 0 64 64">
  	<path d="M-0,-0 L64,-0 L64,64 L-0,64 z M16.828,53.483 C18.246,56.49 21.038,58.981 25.85,58.981 C31.177,58.981 34.828,56.146 34.828,49.917 L34.828,29.382 L28.814,29.382 L28.814,49.832 C28.814,52.839 27.568,53.612 25.592,53.612 C23.53,53.612 22.671,52.194 21.726,50.519 L16.828,53.483 M38.095,52.839 C39.856,56.319 43.465,58.982 49.05,58.982 C54.764,58.982 59.017,56.018 59.017,50.605 C59.017,45.578 56.138,43.345 51.026,41.154 L49.522,40.509 C46.945,39.392 45.828,38.662 45.828,36.857 C45.828,35.397 46.945,34.28 48.706,34.28 C50.425,34.28 51.541,35.01 52.573,36.857 L57.255,33.85 C55.279,30.37 52.53,29.038 48.706,29.038 C43.336,29.038 39.899,32.475 39.899,36.986 C39.899,41.884 42.778,44.204 47.117,46.051 L48.62,46.696 C51.37,47.898 53.002,48.628 53.002,50.691 C53.002,52.409 51.413,53.655 48.921,53.655 C45.957,53.655 44.281,52.108 42.992,50.003 L38.095,52.839"/>
  </symbol>
  <symbol id="karma" viewBox="0 0 64 64">
  	<path d="M37.495,7.418 L37.495,21.462 L47,7.418 L62.52,7.418 L46.601,30.874 L64,56.582 L48.48,56.582 L38.877,42.255 L37.495,44.291 L37.495,56.582 L32.619,56.582 L30.85,49.957 L23.259,21.983 L23.259,7.418 L37.495,7.418 z M-0,22.583 L7.377,49.789 L7.377,49.789 L14.565,43.018 L26.057,56.582 L18.68,29.373 L11.494,36.148 L-0,22.583 z"/>
  </symbol>
  <symbol id="sass" viewBox="0 0 64 64">
  	<path d="M23.599,46.144 C24.215,48.422 24.147,50.547 23.511,52.471 C23.44,52.684 23.362,52.896 23.278,53.105 C23.193,53.313 23.102,53.52 23.004,53.723 C22.513,54.741 21.855,55.694 21.049,56.573 C18.589,59.257 15.153,60.271 13.679,59.416 C12.088,58.494 12.885,54.711 15.737,51.697 C18.804,48.453 23.218,46.368 23.218,46.368 L23.212,46.355 C23.339,46.287 23.468,46.216 23.599,46.144 z M58.565,7.829 C56.648,0.311 44.182,-2.161 32.383,2.031 C25.362,4.526 17.76,8.441 12.295,13.553 C5.796,19.631 4.76,24.922 5.187,27.133 C6.694,34.933 17.382,40.031 21.775,43.814 L21.775,43.837 C20.48,44.475 10.998,49.274 8.778,54.18 C6.437,59.355 9.151,63.069 10.948,63.569 C16.516,65.118 22.229,62.332 25.299,57.752 C28.262,53.333 28.016,47.626 26.728,44.787 C28.504,44.318 30.575,44.108 33.206,44.416 C40.632,45.283 42.089,49.92 41.811,51.86 C41.532,53.8 39.975,54.867 39.454,55.189 C38.933,55.512 38.774,55.623 38.818,55.863 C38.881,56.211 39.122,56.198 39.566,56.123 C40.177,56.02 43.466,54.544 43.606,50.962 C43.785,46.415 39.427,41.327 31.71,41.46 C28.532,41.515 26.534,41.817 25.09,42.355 C24.984,42.233 24.875,42.112 24.763,41.992 C19.992,36.902 11.173,33.302 11.547,26.459 C11.683,23.972 12.547,17.421 28.493,9.476 C41.555,2.967 52.012,4.758 53.819,8.727 C56.4,14.398 48.231,24.939 34.665,26.459 C29.497,27.039 26.776,25.035 26.099,24.29 C25.386,23.504 25.28,23.469 25.014,23.616 C24.58,23.856 24.855,24.55 25.014,24.963 C25.419,26.017 27.081,27.886 29.915,28.816 C32.407,29.634 38.475,30.083 45.814,27.245 C54.032,24.066 60.45,15.222 58.565,7.829"/>
  </symbol>
  <symbol id="stack-overflow" viewBox="0 0 64 64">
  	<path d="M40.036,50.036 L40.036,55.429 L14.786,55.464 L14.786,50.071 z M48.643,37.679 L48.643,62.714 L48.607,63.964 L48.607,64 L8.179,64 L6.929,63.964 L6.893,63.964 L6.893,37.679 L11.214,37.679 L11.214,59.75 L44.357,59.75 L44.357,37.679 L48.643,37.679 z M15.5,40.821 L40.643,43.143 L40.179,48.5 L15,46.179 z M17.929,29.536 L42.321,36.071 L40.929,41.286 L16.536,34.75 z M23.75,17.071 L45.5,29.929 L42.75,34.571 L21,21.714 z M36.607,5.25 L50.821,26.143 L46.393,29.179 L32.143,8.321 z M52.786,-0 L57.107,24.893 L51.786,25.821 L47.464,0.929 z"/>
  </symbol>
  <symbol id="" viewBox="0 0 64 64">
  	
  </symbol>
  <symbol id="" viewBox="0 0 64 64">
  	
  </symbol>
  <symbol id="" viewBox="0 0 64 64">
  	
  </symbol>
  <symbol id="" viewBox="0 0 64 64">
  	
  </symbol>
  <symbol id="" viewBox="0 0 64 64">
  	
  </symbol>
  <symbol id="twitter" viewBox="0 0 64 64">
    <path d="M64,12.183 Q61.279,16.162 57.421,18.964 Q57.462,19.533 57.462,20.67 Q57.462,25.949 55.919,31.208 Q54.376,36.467 51.228,41.299 Q48.081,46.132 43.736,49.848 Q39.391,53.563 33.259,55.777 Q27.127,57.99 20.142,57.99 Q9.137,57.99 0,52.102 Q1.421,52.264 3.168,52.264 Q12.305,52.264 19.452,46.66 Q15.188,46.579 11.817,44.041 Q8.447,41.503 7.188,37.563 Q8.528,37.766 9.665,37.766 Q11.411,37.766 13.117,37.32 Q8.569,36.386 5.584,32.792 Q2.599,29.198 2.599,24.447 L2.599,24.284 Q5.36,25.827 8.528,25.949 Q5.848,24.162 4.264,21.279 Q2.68,18.396 2.68,15.025 Q2.68,11.452 4.467,8.406 Q9.381,14.457 16.426,18.091 Q23.472,21.726 31.513,22.132 Q31.188,20.589 31.188,19.127 Q31.188,13.685 35.025,9.848 Q38.863,6.01 44.305,6.01 Q49.99,6.01 53.888,10.152 Q58.315,9.299 62.213,6.985 Q60.711,11.655 56.447,14.213 Q60.223,13.807 64,12.183 z"/>
  </symbol>
</svg>
