<?xml version="1.0" encoding="UTF-8"?>
<?xml-stylesheet href="vector.css" type="text/css"?>
<!DOCTYPE svg PUBLIC "-//W3C//DTD SVG 1.1//EN" "http://www.w3.org/Graphics/SVG/1.1/DTD/svg11.dtd">
<svg version="1.1" xmlns="http://www.w3.org/2000/svg" xmlns:xlink="http://www.w3.org/1999/xlink" x="0" y="0" width="64" height="64" viewBox="0, 0, 64, 64">
  <g id="Layer_1">
    <path d="M40.036,50.036 L40.036,55.429 L14.786,55.464 L14.786,50.071 z M48.643,37.679 L48.643,62.714 L48.607,63.964 L48.607,64 L8.179,64 L6.929,63.964 L6.893,63.964 L6.893,37.679 L11.214,37.679 L11.214,59.75 L44.357,59.75 L44.357,37.679 L48.643,37.679 z M15.5,40.821 L40.643,43.143 L40.179,48.5 L15,46.179 z M17.929,29.536 L42.321,36.071 L40.929,41.286 L16.536,34.75 z M23.75,17.071 L45.5,29.929 L42.75,34.571 L21,21.714 z M36.607,5.25 L50.821,26.143 L46.393,29.179 L32.143,8.321 z M52.786,-0 L57.107,24.893 L51.786,25.821 L47.464,0.929 z"/>
  </g>
</svg>
