<?xml version="1.0" encoding="UTF-8"?>
<!DOCTYPE svg PUBLIC "-//W3C//DTD SVG 1.1//EN" "http://www.w3.org/Graphics/SVG/1.1/DTD/svg11.dtd">
<svg version="1.1" xmlns="http://www.w3.org/2000/svg" xmlns:xlink="http://www.w3.org/1999/xlink" x="0" y="0" width="64" height="64" viewBox="0, 0, 64, 64">
  <g id="Layer_1">
    <g display="none">
      <path d="M32,64 C16.536,64 4,51.464 4,36 C4,20.536 16.536,8 32,8 C47.464,8 60,20.536 60,36 C60,51.464 47.464,64 32,64 z" fill="#000000"/>
      <path d="M30,0 L34,0 C35.105,0 36,0.895 36,2 L36,14 C36,15.105 35.105,16 34,16 L30,16 C28.895,16 28,15.105 28,14 L28,2 C28,0.895 28.895,0 30,0 z" fill="#000000"/>
      <path d="M7.958,14.787 L10.787,11.958 C11.568,11.177 12.834,11.177 13.615,11.958 L22.101,20.444 C22.882,21.225 22.882,22.491 22.101,23.272 L19.272,26.101 C18.491,26.882 17.225,26.882 16.444,26.101 L7.958,17.615 C7.177,16.834 7.177,15.568 7.958,14.787 z" fill="#000000"/>
    </g>
    <path d="M34,0 C35.105,0 36,0.895 36,2 L36,8.381 C42.013,9.01 47.295,12.418 51.799,16.201 C62.734,27.136 62.734,44.864 51.799,55.799 C40.864,66.734 23.136,66.734 12.201,55.799 C3.703,47.003 1.583,33.92 7.203,22.979 C7.876,21.67 8.827,20.523 9.639,19.296 L7.958,17.615 C7.177,16.834 7.177,15.568 7.958,14.787 L10.787,11.958 C11.568,11.177 12.834,11.177 13.615,11.958 L15.296,13.639 C19.093,11.061 23.376,8.914 28,8.429 L28,2 C28,0.895 28.895,0 30,0 L34,0 z M49.197,25.007 L48.821,25.134 L31.5,35.134 C31.022,35.41 30.858,36.022 31.134,36.5 C31.41,36.978 32.022,37.142 32.5,36.866 L49.821,26.866 C50.299,26.59 50.463,25.978 50.187,25.5 C49.758,25.014 50.052,25.236 49.197,25.007 z M46.052,20.915 C45.599,20.981 45.803,20.9 45.435,21.151 C45.045,21.541 45.045,22.174 45.435,22.565 C45.826,22.955 46.459,22.955 46.849,22.565 C47.24,22.174 47.24,21.541 46.849,21.151 L46.518,20.931 L46.052,20.915 z M42.124,17.687 C41.269,17.916 41.563,17.693 41.134,18.179 C40.858,18.658 41.022,19.269 41.5,19.546 C41.978,19.822 42.59,19.658 42.866,19.179 C43.142,18.701 42.978,18.09 42.5,17.813 L42.124,17.687 z M37.039,15.691 C36.272,16.133 36.499,15.842 36.21,16.423 C36.068,16.956 36.384,17.504 36.917,17.647 C37.451,17.79 37.999,17.474 38.142,16.94 C38.285,16.407 37.969,15.859 37.435,15.716 L37.039,15.691 z M32,15 C31.448,15 31,15.448 31,16 C31,16.552 31.448,17 32,17 C32.552,17 33,16.552 33,16 C33,15.448 32.552,15 32,15 z" fill="#000000"/>
    <path d="M32,60 C18.745,60 8,49.255 8,36 C8,22.745 18.745,12 32,12 C45.255,12 56,22.745 56,36 C56,49.255 45.255,60 32,60 z" fill="#FFFFFF" display="none"/>
    <path d="M46,35 L52,35 C52.552,35 53,35.448 53,36 L53,36 C53,36.552 52.552,37 52,37 L46,37 C45.448,37 45,36.552 45,36 L45,36 C45,35.448 45.448,35 46,35 z" fill="#FFFFFF" display="none"/>
    <path d="M33,50 L33,56 C33,56.552 32.552,57 32,57 L32,57 C31.448,57 31,56.552 31,56 L31,50 C31,49.448 31.448,49 32,49 L32,49 C32.552,49 33,49.448 33,50 z" fill="#FFFFFF" display="none"/>
    <path d="M18,37 L12,37 C11.448,37 11,36.552 11,36 L11,36 C11,35.448 11.448,35 12,35 L18,35 C18.552,35 19,35.448 19,36 L19,36 C19,36.552 18.552,37 18,37 z" fill="#FFFFFF" display="none"/>
  </g>
  <g id="Layer_1_Copy" display="none">
    <g display="none">
      <path d="M32,64 C16.536,64 4,51.464 4,36 C4,20.536 16.536,8 32,8 C47.464,8 60,20.536 60,36 C60,51.464 47.464,64 32,64 z" fill="#000000"/>
      <path d="M30,0 L34,0 C35.105,0 36,0.895 36,2 L36,14 C36,15.105 35.105,16 34,16 L30,16 C28.895,16 28,15.105 28,14 L28,2 C28,0.895 28.895,0 30,0 z" fill="#000000"/>
      <path d="M7.958,14.787 L10.787,11.958 C11.568,11.177 12.834,11.177 13.615,11.958 L22.101,20.444 C22.882,21.225 22.882,22.491 22.101,23.272 L19.272,26.101 C18.491,26.882 17.225,26.882 16.444,26.101 L7.958,17.615 C7.177,16.834 7.177,15.568 7.958,14.787 z" fill="#000000"/>
    </g>
    <path d="M34,-0 C35.105,-0 36,0.895 36,2 L36,8.381 C42.013,9.01 47.295,12.418 51.799,16.201 C62.734,27.136 62.734,44.864 51.799,55.799 L51.799,55.799 C40.864,66.734 23.136,66.734 12.201,55.799 C3.703,47.003 1.583,33.92 7.203,22.979 C7.876,21.67 8.827,20.523 9.639,19.296 L7.958,17.615 C7.177,16.834 7.177,15.568 7.958,14.787 L10.787,11.958 C11.568,11.177 12.834,11.177 13.615,11.958 L15.296,13.639 C19.093,11.061 23.376,8.914 28,8.429 L28,2 C28,0.895 28.895,-0 30,-0 L34,-0 z" fill="#000000"/>
    <path d="M32,60 C18.745,60 8,49.255 8,36 C8,22.745 18.745,12 32,12 C45.255,12 56,22.745 56,36 C56,49.255 45.255,60 32,60 z" fill="#FFFFFF" display="none"/>
    <path d="M50.187,25.5 L50.187,25.5 C50.463,25.978 50.299,26.59 49.821,26.866 L32.5,36.866 C32.022,37.142 31.41,36.978 31.134,36.5 L31.134,36.5 C30.858,36.022 31.022,35.41 31.5,35.134 L48.821,25.134 C49.299,24.858 49.91,25.022 50.187,25.5 z" fill="#FFFFFF"/>
    <path d="M32,17 C31.448,17 31,16.552 31,16 C31,15.448 31.448,15 32,15 C32.552,15 33,15.448 33,16 C33,16.552 32.552,17 32,17 z" fill="#FFFFFF"/>
    <path d="M36.918,17.647 C36.384,17.504 36.068,16.956 36.21,16.423 C36.353,15.889 36.902,15.573 37.435,15.716 C37.969,15.858 38.285,16.407 38.142,16.94 C37.999,17.474 37.451,17.79 36.918,17.647 z" fill="#FFFFFF"/>
    <path d="M41.5,19.546 C41.022,19.269 40.858,18.658 41.134,18.179 C41.41,17.701 42.022,17.537 42.5,17.813 C42.978,18.09 43.142,18.701 42.866,19.179 C42.59,19.658 41.978,19.822 41.5,19.546 z" fill="#FFFFFF"/>
    <path d="M45.435,22.565 C45.045,22.174 45.045,21.541 45.435,21.151 C45.826,20.76 46.459,20.76 46.849,21.151 C47.24,21.541 47.24,22.174 46.849,22.565 C46.459,22.955 45.826,22.955 45.435,22.565 z" fill="#FFFFFF"/>
    <path d="M46,35 L52,35 C52.552,35 53,35.448 53,36 L53,36 C53,36.552 52.552,37 52,37 L46,37 C45.448,37 45,36.552 45,36 L45,36 C45,35.448 45.448,35 46,35 z" fill="#FFFFFF" display="none"/>
    <path d="M33,50 L33,56 C33,56.552 32.552,57 32,57 L32,57 C31.448,57 31,56.552 31,56 L31,50 C31,49.448 31.448,49 32,49 L32,49 C32.552,49 33,49.448 33,50 z" fill="#FFFFFF" display="none"/>
    <path d="M18,37 L12,37 C11.448,37 11,36.552 11,36 L11,36 C11,35.448 11.448,35 12,35 L18,35 C18.552,35 19,35.448 19,36 L19,36 C19,36.552 18.552,37 18,37 z" fill="#FFFFFF" display="none"/>
  </g>
  <g id="Layer_2" display="none">
    <path d="M32.5,62.5 C15.931,62.5 2.5,49.069 2.5,32.5 C2.5,15.931 15.931,2.5 32.5,2.5 C49.069,2.5 62.5,15.931 62.5,32.5 C62.5,49.069 49.069,62.5 32.5,62.5 z" fill-opacity="0" stroke="#000000" stroke-width="4"/>
  </g>
</svg>
