<?xml version="1.0" encoding="UTF-8"?>
<?xml-stylesheet href="vector.css" type="text/css"?>
<!DOCTYPE svg PUBLIC "-//W3C//DTD SVG 1.1//EN" "http://www.w3.org/Graphics/SVG/1.1/DTD/svg11.dtd">
<svg version="1.1" xmlns="http://www.w3.org/2000/svg" xmlns:xlink="http://www.w3.org/1999/xlink" x="0" y="0" width="64" height="64" viewBox="0, 0, 64, 64">
  <g id="Layer_1">
    <path d="M64,12.183 Q61.279,16.162 57.421,18.964 Q57.462,19.533 57.462,20.67 Q57.462,25.949 55.919,31.208 Q54.376,36.467 51.228,41.299 Q48.081,46.132 43.736,49.848 Q39.391,53.563 33.259,55.777 Q27.127,57.99 20.142,57.99 Q9.137,57.99 0,52.102 Q1.421,52.264 3.168,52.264 Q12.305,52.264 19.452,46.66 Q15.188,46.579 11.817,44.041 Q8.447,41.503 7.188,37.563 Q8.528,37.766 9.665,37.766 Q11.411,37.766 13.117,37.32 Q8.569,36.386 5.584,32.792 Q2.599,29.198 2.599,24.447 L2.599,24.284 Q5.36,25.827 8.528,25.949 Q5.848,24.162 4.264,21.279 Q2.68,18.396 2.68,15.025 Q2.68,11.452 4.467,8.406 Q9.381,14.457 16.426,18.091 Q23.472,21.726 31.513,22.132 Q31.188,20.589 31.188,19.127 Q31.188,13.685 35.025,9.848 Q38.863,6.01 44.305,6.01 Q49.99,6.01 53.888,10.152 Q58.315,9.299 62.213,6.985 Q60.711,11.655 56.447,14.213 Q60.223,13.807 64,12.183 z"/>
  </g>
</svg>
