<?xml version="1.0" encoding="UTF-8"?>
<!DOCTYPE svg PUBLIC "-//W3C//DTD SVG 1.1//EN" "http://www.w3.org/Graphics/SVG/1.1/DTD/svg11.dtd">
<svg version="1.1" xmlns="http://www.w3.org/2000/svg" xmlns:xlink="http://www.w3.org/1999/xlink" x="0" y="0" width="64" height="64" viewBox="0, 0, 64, 64">
  <g id="Layer_1">
    <path d="M48,0 C49.105,0 50,0.895 50,2 L50,62 C50,63.105 49.105,64 48,64 L16,64 C14.895,64 14,63.105 14,62 L14,2 C14,0.895 14.895,0 16,0 L48,0 z M32,55 C30.343,55 29,56.343 29,58 C29,59.657 30.343,61 32,61 C33.657,61 35,59.657 35,58 C35,56.343 33.657,55 32,55 z M28.88,22.007 C26.619,22.485 27.488,22.121 26.165,22.795 C24.649,23.785 22.907,25.687 23.569,29.049 C21.523,29.614 20,31.45 20,33.672 C20,36.316 22.142,38.458 24.785,38.458 L39.215,38.458 C41.858,38.458 44,36.316 44,33.672 C44,31.491 42.669,29.742 40.543,29.078 C40.728,28.09 40.642,26.392 39.016,25.207 C38.111,24.547 36.211,23.927 34.377,25.349 C33.13,23.192 31.467,22.052 28.88,22.007 z M35,4 L29,4 C28.724,4 28.5,4.224 28.5,4.5 C28.5,4.776 28.724,5 29,5 L35,5 C35.276,5 35.5,4.776 35.5,4.5 C35.5,4.224 35.276,4 35,4 z" fill="#000000"/>
  </g>
</svg>
