<?xml version="1.0" encoding="UTF-8"?>
<!DOCTYPE svg PUBLIC "-//W3C//DTD SVG 1.1//EN" "http://www.w3.org/Graphics/SVG/1.1/DTD/svg11.dtd">
<svg version="1.1" xmlns="http://www.w3.org/2000/svg" xmlns:xlink="http://www.w3.org/1999/xlink" x="0" y="0" width="64" height="39.222" viewBox="0, 0, 64, 39.222">
  <g id="Layer_1" transform="translate(0, -12.477)">
    <path d="M-0,30.454 Q1.325,30.454 2.297,29.526 Q3.268,28.599 3.268,26.479 L3.268,18.175 Q3.268,16.673 3.688,15.591 Q4.108,14.509 4.836,13.802 Q5.565,13.096 6.515,12.786 Q7.464,12.477 8.48,12.477 L11.484,12.477 L11.484,15.525 L9.231,15.525 Q8.48,15.525 8.039,15.812 Q7.597,16.099 7.376,16.563 Q7.155,17.027 7.067,17.579 Q6.979,18.131 6.979,18.705 L6.979,26.788 Q6.979,28.245 6.515,29.217 Q6.051,30.189 5.389,30.785 Q4.726,31.381 4.019,31.69 Q3.313,32 2.871,32.044 L2.871,32.132 Q3.313,32.176 4.019,32.441 Q4.726,32.706 5.389,33.303 Q6.051,33.899 6.515,34.915 Q6.979,35.931 6.979,37.521 L6.979,45.471 Q6.979,46.045 7.067,46.597 Q7.155,47.149 7.376,47.613 Q7.597,48.077 8.039,48.364 Q8.48,48.651 9.231,48.651 L11.484,48.651 L11.484,51.699 L8.48,51.699 Q7.464,51.699 6.515,51.39 Q5.565,51.08 4.836,50.374 Q4.108,49.667 3.688,48.607 Q3.268,47.547 3.268,46.001 L3.268,37.874 Q3.268,35.621 2.297,34.672 Q1.325,33.722 -0,33.722 z" fill="#FFFFFF"/>
    <path d="M38.559,27.274 L32.994,27.274 L32.994,38.183 Q32.994,40.082 33.7,40.9 Q34.407,41.717 35.953,41.717 Q36.527,41.717 37.19,41.584 Q37.852,41.452 38.382,41.187 L38.515,44.588 Q37.764,44.853 36.859,45.007 Q35.953,45.162 34.981,45.162 Q32.022,45.162 30.454,43.528 Q28.886,41.893 28.886,38.625 L28.886,27.274 L24.867,27.274 L24.867,23.873 L28.886,23.873 L28.886,17.866 L32.994,17.866 L32.994,23.873 L38.559,23.873 z" fill="#FFFFFF"/>
    <path d="M64,33.722 Q62.675,33.722 61.703,34.672 Q60.732,35.621 60.732,37.874 L60.732,46.001 Q60.732,47.547 60.312,48.607 Q59.892,49.667 59.164,50.374 Q58.435,51.08 57.485,51.39 Q56.536,51.699 55.52,51.699 L52.516,51.699 L52.516,48.651 L54.813,48.651 Q55.52,48.651 55.961,48.364 Q56.403,48.077 56.624,47.613 Q56.845,47.149 56.933,46.597 Q57.021,46.045 57.021,45.471 L57.021,37.521 Q57.021,35.931 57.485,34.915 Q57.949,33.899 58.611,33.303 Q59.274,32.706 59.981,32.441 Q60.687,32.176 61.173,32.132 L61.173,32.044 Q60.687,32 59.981,31.69 Q59.274,31.381 58.611,30.785 Q57.949,30.189 57.485,29.217 Q57.021,28.245 57.021,26.788 L57.021,18.705 Q57.021,18.131 56.933,17.579 Q56.845,17.027 56.624,16.563 Q56.403,16.099 55.961,15.812 Q55.52,15.525 54.813,15.525 L52.516,15.525 L52.516,12.477 L55.52,12.477 Q56.536,12.477 57.485,12.786 Q58.435,13.096 59.164,13.802 Q59.892,14.509 60.312,15.591 Q60.732,16.673 60.732,18.175 L60.732,26.479 Q60.732,28.599 61.703,29.526 Q62.675,30.454 64,30.454 z" fill="#FFFFFF"/>
  </g>
</svg>
