<svg style="display: none;"><symbol id="devices" viewBox="0 0 48 48"><path d="M8 12h36V8H8c-2.21 0-4 1.79-4 4v22H0v6h28v-6H8V12zm38 4H34c-1.1 0-2 .9-2 2v20c0 1.1.9 2 2 2h12c1.1 0 2-.9 2-2V18c0-1.1-.9-2-2-2zm-2 18h-8V20h8v14z"/></symbol><symbol id="network_check" viewBox="-6 -30 48 48" enable-background="new -6 -30 48 48"><path d="M25.8-20c-.35 0-.64.19-.82.46l-.13.29L14.48 4.06c-.32.57-.51 1.22-.51 1.93 0 2.21 1.8 4.01 4.01 4.01 1.93 0 3.53-1.36 3.92-3.17l.01-.07L26.8-19c0-.55-.45-1-1-1zM-4-12l4 4c5.75-5.75 13.57-8.15 21.07-7.25l2.38-5.36C13.79-22.32 3.47-19.46-4-12zm40 4l4-4c-3.27-3.27-7.1-5.63-11.17-7.14l-1.07 5.63c2.99 1.24 5.8 3.07 8.24 5.51zm-8 8l4-4c-1.6-1.6-3.41-2.84-5.33-3.78l-1.11 5.84C26.43-1.39 27.25-.75 28 0zM4-4l4 4c2.27-2.27 5.11-3.59 8.06-3.99l2.57-5.77C13.35-9.92 8.03-8.02 4-4z"/></symbol><symbol id="web" viewBox="0 0 48 48"><path d="M40 8H8c-2.21 0-3.98 1.79-3.98 4L4 36c0 2.21 1.79 4 4 4h32c2.21 0 4-1.79 4-4V12c0-2.21-1.79-4-4-4zM30 36H8v-8h22v8zm0-10H8v-8h22v8zm10 10h-8V18h8v18z"/></symbol><symbol id="touch_app" viewBox="0 0 48 48"><path d="M18 22.48V15c0-2.76 2.24-5 5-5s5 2.24 5 5v7.48c2.41-1.61 4-4.36 4-7.48 0-4.97-4.03-9-9-9s-9 4.03-9 9c0 3.12 1.59 5.87 4 7.48zm19.67 9.26l-9.08-4.52c-.34-.14-.7-.22-1.09-.22H26V15c0-1.66-1.34-3-3-3s-3 1.34-3 3v21.47l-6.85-1.43c-.15-.03-.31-.05-.47-.05-.62 0-1.18.26-1.59.66l-1.58 1.6 9.88 9.88c.55.54 1.3.88 2.12.88H35.1c1.51 0 2.66-1.11 2.87-2.56l1.51-10.54c.02-.14.03-.27.03-.41-.01-1.24-.77-2.31-1.84-2.76z"/></symbol><symbol id="search" viewBox="0 0 48 48"><path d="M31 28h-1.59l-.55-.55C30.82 25.18 32 22.23 32 19c0-7.18-5.82-13-13-13S6 11.82 6 19s5.82 13 13 13c3.23 0 6.18-1.18 8.45-3.13l.55.55V31l10 9.98L40.98 38 31 28zm-12 0c-4.97 0-9-4.03-9-9s4.03-9 9-9 9 4.03 9 9-4.03 9-9 9z"/></symbol><symbol id="accessibility" viewBox="0 0 48 48"><path d="M24 4c2.21 0 4 1.79 4 4s-1.79 4-4 4-4-1.79-4-4 1.79-4 4-4zm18 14H30v26h-4V32h-4v12h-4V18H6v-4h36v4z"/></symbol><symbol id="view_quilt" viewBox="0 0 48 48"><path d="M20 36h10V24H20v12zM8 36h10V10H8v26zm24 0h10V24H32v12zM20 10v12h22V10H20z"/></symbol><symbol id="group" viewBox="0 0 48 48"><path d="M32 22c3.31 0 5.98-2.69 5.98-6s-2.67-6-5.98-6c-3.31 0-6 2.69-6 6s2.69 6 6 6zm-16 0c3.31 0 5.98-2.69 5.98-6s-2.67-6-5.98-6c-3.31 0-6 2.69-6 6s2.69 6 6 6zm0 4c-4.67 0-14 2.34-14 7v5h28v-5c0-4.66-9.33-7-14-7zm16 0c-.58 0-1.23.04-1.93.11C32.39 27.78 34 30.03 34 33v5h12v-5c0-4.66-9.33-7-14-7z"/></symbol><symbol id="send" viewBox="0 0 48 48"><path d="M4.02 42L46 24 4.02 6 4 20l30 4-30 4z"/></symbol><symbol id="build" viewBox="0 0 48 48"><path d="M45.4 37.9L27.1 19.6c1.8-4.6.8-10.1-2.9-13.8-4-4-10-4.8-14.8-2.5l8.7 8.7-6.1 6.1-8.7-8.7C1 14.2 1.8 20.2 5.8 24.2c3.7 3.7 9.2 4.7 13.8 2.9l18.3 18.3c.8.8 2.1.8 2.8 0l4.7-4.7c.8-.7.8-2 0-2.8z"/></symbol><symbol id="code" viewBox="0 0 48 48"><path d="M18.8 33.2L9.7 24l9.2-9.2L16 12 4 24l12 12 2.8-2.8zm10.4 0l9.2-9.2-9.2-9.2L32 12l12 12-12 12-2.8-2.8z"/></symbol><symbol id="image" viewBox="0 0 48 48"><path d="M42 38V10c0-2.21-1.79-4-4-4H10c-2.21 0-4 1.79-4 4v28c0 2.21 1.79 4 4 4h28c2.21 0 4-1.79 4-4zM17 27l5 6.01L29 24l9 12H10l7-9z"/></symbol><symbol id="keyboard_arrow_right" viewBox="0 0 48 48"><path d="M17.17 32.92l9.17-9.17-9.17-9.17L20 11.75l12 12-12 12z"/></symbol></svg>
