<svg xmlns="http://www.w3.org/2000/svg" width="320" height="64" viewBox="0 0 320 64"><g fill="#fff"><path d="M0 27.785q1.888 0 3.272-1.322 1.384-1.321 1.384-4.341V10.293q0-2.139.598-3.68.597-1.542 1.636-2.549 1.038-1.006 2.39-1.447 1.353-.44 2.8-.44h4.279v4.341H13.15q-1.07 0-1.699.409t-.944 1.07q-.314.66-.44 1.447-.126.786-.126 1.604v11.514q0 2.077-.661 3.461-.66 1.384-1.604 2.233-.944.85-1.95 1.29-1.007.441-1.636.504v.125q.629.063 1.636.441 1.006.377 1.95 1.227.944.849 1.604 2.296.661 1.447.661 3.712v11.326q0 .817.126 1.604.126.786.44 1.447.315.661.944 1.07.629.409 1.699.409h3.209v4.341H12.08q-1.447 0-2.8-.44-1.352-.441-2.39-1.448-1.039-1.006-1.636-2.516-.598-1.51-.598-3.712V38.355q0-3.209-1.384-4.562Q1.888 32.44 0 32.44zM54.927 23.254H47v15.541q0 2.706 1.006 3.87 1.007 1.164 3.209 1.164.818 0 1.762-.189.944-.189 1.699-.566l.188 4.844q-1.069.378-2.359.598-1.29.22-2.674.22-4.216 0-6.449-2.328-2.234-2.328-2.234-6.984v-16.17h-5.725V18.41h5.725V9.853H47v8.557h7.927zM72.355 41.815h.126l8.243-23.405h6.291L72.544 55.28q-.755 1.887-1.636 3.366-.88 1.478-2.076 2.516-1.195 1.039-2.8 1.605-1.604.566-3.806.566-.944 0-1.919-.094-.976-.095-1.982-.346l.566-5.223q1.51.504 2.957.504 2.328 0 3.461-1.29 1.132-1.29 2.076-3.681l1.888-4.97L56.5 18.41h6.607zM98.781 48.233h-5.914V.667h5.914zM130.932 30.679q-.063-1.762-.598-3.303-.535-1.542-1.573-2.674-1.038-1.133-2.579-1.794-1.542-.66-3.618-.66-1.888 0-3.555.66-1.667.661-2.894 1.794-1.227 1.132-2.014 2.674-.786 1.541-.912 3.303zm5.977 2.391v1.006q0 .504-.063 1.007h-23.657q.063 1.888.85 3.555.786 1.667 2.107 2.894 1.322 1.227 3.052 1.919t3.68.692q3.021 0 5.223-1.321t3.46-3.209l4.153 3.335q-2.391 3.146-5.631 4.624-3.241 1.479-7.205 1.479-3.397 0-6.291-1.133-2.895-1.132-4.971-3.177t-3.272-4.939q-1.195-2.894-1.195-6.418 0-3.46 1.164-6.386t3.24-5.002q2.077-2.076 4.908-3.24 2.831-1.164 6.103-1.164t5.946 1.069q2.674 1.07 4.53 3.083 1.856 2.014 2.862 4.877 1.007 2.862 1.007 6.449zM145.151 24.827q0-1.195-.063-3.083-.062-1.887-.188-3.334h5.599q.126 1.132.189 2.611.063 1.478.063 2.422h.189q1.258-2.642 3.681-4.247 2.422-1.604 5.442-1.604 1.384 0 2.328.251l-.252 5.474q-1.258-.314-2.705-.314-2.139 0-3.712.786-1.573.787-2.611 2.108-1.039 1.321-1.542 3.051-.503 1.731-.503 3.618v15.667h-5.915zM174.471 42.696h23.28v5.537h-29.509V3.687h28.565v5.474h-22.336v13.338h21.015v5.348h-21.015zM211.718 48.233h-5.914V18.41h5.914zm1.007-40.582q0 1.636-1.164 2.705-1.164 1.07-2.8 1.07t-2.768-1.101q-1.133-1.101-1.133-2.674 0-1.636 1.133-2.737 1.132-1.101 2.768-1.101t2.8 1.101q1.164 1.101 1.164 2.737zM242.926 25.96q-.944-1.447-2.832-2.422-1.887-.976-4.026-.976-2.328 0-4.121.881-1.794.881-3.052 2.36-1.258 1.478-1.919 3.429-.661 1.95-.661 4.089 0 2.139.661 4.09.661 1.95 1.919 3.429 1.258 1.479 3.083 2.359 1.825.881 4.153.881 2.265 0 4.121-.881 1.856-.88 3.051-2.391l3.964 3.587q-1.888 2.202-4.719 3.429-2.831 1.227-6.417 1.227-3.461 0-6.387-1.133-2.925-1.132-5.064-3.177-2.14-2.045-3.367-4.939-1.226-2.894-1.226-6.481 0-3.523 1.195-6.417 1.195-2.895 3.335-4.971 2.139-2.076 5.064-3.209 2.926-1.132 6.324-1.132 3.146 0 6.26 1.258 3.114 1.259 4.939 3.649zM259.284 22.94q1.07-2.202 3.65-3.775 2.579-1.573 5.788-1.573 2.894 0 4.971.975 2.076.975 3.46 2.611 1.384 1.636 2.045 3.838.66 2.202.66 4.719v18.498h-5.914V31.748q0-1.824-.283-3.46t-1.038-2.894q-.755-1.259-2.045-2.014-1.29-.755-3.366-.755-3.523 0-5.788 2.674t-2.265 7.141v15.793h-5.915V.667h5.915V22.94zM320 32.44q-1.888 0-3.272 1.353t-1.384 4.562v11.577q0 2.202-.598 3.712-.597 1.51-1.635 2.516-1.039 1.007-2.391 1.448-1.353.44-2.8.44h-4.279v-4.341h3.272q1.007 0 1.636-.409t.944-1.07q.314-.661.44-1.447.126-.787.126-1.604V37.851q0-2.265.661-3.712.66-1.447 1.604-2.296.944-.85 1.95-1.227 1.007-.378 1.699-.441v-.125q-.692-.063-1.699-.504-1.006-.44-1.95-1.29-.944-.849-1.604-2.233-.661-1.384-.661-3.461V11.048q0-.818-.126-1.604-.126-.787-.44-1.447-.315-.661-.944-1.07-.629-.409-1.636-.409h-3.272V2.177h4.279q1.447 0 2.8.44 1.352.441 2.391 1.447 1.038 1.007 1.635 2.549.598 1.541.598 3.68v11.829q0 3.02 1.384 4.341 1.384 1.322 3.272 1.322z"/></g></svg>