<svg xmlns="http://www.w3.org/2000/svg" width="64" height="39.222" viewBox="0 0 64 39.222"><g fill="#FFF"><path d="M0 17.977q1.325 0 2.297-.928.971-.927.971-3.047V5.698q0-1.502.42-2.584t1.148-1.789Q5.565.619 6.515.309 7.464 0 8.48 0h3.004v3.048H9.231q-.751 0-1.192.287-.442.287-.663.751-.221.464-.309 1.016t-.088 1.126v8.083q0 1.457-.464 2.429-.464.972-1.126 1.568-.663.596-1.37.905-.706.31-1.148.354v.088q.442.044 1.148.309.707.265 1.37.862.662.596 1.126 1.612.464 1.016.464 2.606v7.95q0 .574.088 1.126.088.552.309 1.016.221.464.663.751.441.287 1.192.287h2.253v3.048H8.48q-1.016 0-1.965-.309-.95-.31-1.679-1.016-.728-.707-1.148-1.767-.42-1.06-.42-2.606v-8.127q0-2.253-.971-3.202-.972-.95-2.297-.95zM38.559 14.797h-5.565v10.909q0 1.899.706 2.717.707.817 2.253.817.574 0 1.237-.133.662-.132 1.192-.397l.133 3.401q-.751.265-1.656.419-.906.155-1.878.155-2.959 0-4.527-1.634-1.568-1.635-1.568-4.903V14.797h-4.019v-3.401h4.019V5.389h4.108v6.007h5.565zM64 21.245q-1.325 0-2.297.95-.971.949-.971 3.202v8.127q0 1.546-.42 2.606-.42 1.06-1.148 1.767-.729.706-1.679 1.016-.949.309-1.965.309h-3.004v-3.048h2.297q.707 0 1.148-.287.442-.287.663-.751.221-.464.309-1.016t.088-1.126v-7.95q0-1.59.464-2.606.464-1.016 1.126-1.612.663-.597 1.37-.862.706-.265 1.192-.309v-.088q-.486-.044-1.192-.354-.707-.309-1.37-.905-.662-.596-1.126-1.568-.464-.972-.464-2.429V6.228q0-.574-.088-1.126-.088-.552-.309-1.016-.221-.464-.663-.751-.441-.287-1.148-.287h-2.297V0h3.004q1.016 0 1.965.309.95.31 1.679 1.016.728.707 1.148 1.789.42 1.082.42 2.584v8.304q0 2.12.971 3.047.972.928 2.297.928z"/></g></svg>